<svg width="80" height="80" fill="none" xmlns="http://www.w3.org/2000/svg"><mask id="path-1-outside-1_208_101" maskUnits="userSpaceOnUse" x="29.852" y="30.143" width="47" height="47" fill="#000"><path fill="#fff" d="M29.852 30.143h47v47h-47z"/><path d="M36.11 58.072a2.99 2.99 0 00.88 2.128l.72.72a3 3 0 002.136.88c.404.002.804-.08 1.176-.24L44.454 65a14.232 14.232 0 0010.128 4.192 14.092 14.092 0 004.112-.6L62.91 72.8a.8.8 0 001.128 0l1.352-1.352 5.088 5.088a.8.8 0 001.128 0l4.648-4.648a.8.8 0 000-1.128l-5.088-5.088 1.344-1.32a.802.802 0 000-1.152l-4.24-4.24c.402-1.334.604-2.72.6-4.112a14.233 14.233 0 00-4.192-10.128l-3.368-3.408c.16-.371.241-.772.24-1.176A2.998 2.998 0 0060.67 38l-.72-.72a3.096 3.096 0 00-4.264 0l-.864.864-5.88-5.888a3.45 3.45 0 00-5.737 1.048 3.448 3.448 0 00.865 3.824l5.888 5.888-7.2 7.2-5.92-5.896a3.449 3.449 0 10-4.872 4.872l5.888 5.88-.864.864a3 3 0 00-.88 2.136zM74.582 71.36l-3.512 3.512-4.52-4.52 3.512-3.512 4.52 4.52zm-3.736-7.568l-1.352 1.344-4.648 4.648-1.344 1.352L60.342 68a14.296 14.296 0 007.368-7.368l3.136 3.16zM63.574 45.88A12.72 12.72 0 1145.59 63.864l-3.28-3.28L60.294 42.6l3.28 3.28zM45.158 36a1.856 1.856 0 010-2.608 1.856 1.856 0 012.608 0l5.888 5.888-2.608 2.6L45.158 36zM33.102 48.056a1.848 1.848 0 010-2.608 1.856 1.856 0 012.608 0l5.88 5.888-2.6 2.608-5.888-5.888zm5.008 9.016l1.424-1.432 3.736-3.736 8.344-8.328 3.736-3.736 1.432-1.44a1.381 1.381 0 011-.416 1.368 1.368 0 01.992.416l.728.72a1.407 1.407 0 01.408 1 1.392 1.392 0 01-.408.992l-18.664 18.68a1.44 1.44 0 01-1.992 0l-.72-.728a1.368 1.368 0 01-.416-.992 1.383 1.383 0 01.4-1z"/></mask><path d="M36.11 58.072a2.99 2.99 0 00.88 2.128l.72.72a3 3 0 002.136.88c.404.002.804-.08 1.176-.24L44.454 65a14.232 14.232 0 0010.128 4.192 14.092 14.092 0 004.112-.6L62.91 72.8a.8.8 0 001.128 0l1.352-1.352 5.088 5.088a.8.8 0 001.128 0l4.648-4.648a.8.8 0 000-1.128l-5.088-5.088 1.344-1.32a.802.802 0 000-1.152l-4.24-4.24c.402-1.334.604-2.72.6-4.112a14.233 14.233 0 00-4.192-10.128l-3.368-3.408c.16-.371.241-.772.24-1.176A2.998 2.998 0 0060.67 38l-.72-.72a3.096 3.096 0 00-4.264 0l-.864.864-5.88-5.888a3.45 3.45 0 00-5.737 1.048 3.448 3.448 0 00.865 3.824l5.888 5.888-7.2 7.2-5.92-5.896a3.449 3.449 0 10-4.872 4.872l5.888 5.88-.864.864a3 3 0 00-.88 2.136zM74.582 71.36l-3.512 3.512-4.52-4.52 3.512-3.512 4.52 4.52zm-3.736-7.568l-1.352 1.344-4.648 4.648-1.344 1.352L60.342 68a14.296 14.296 0 007.368-7.368l3.136 3.16zM63.574 45.88A12.72 12.72 0 1145.59 63.864l-3.28-3.28L60.294 42.6l3.28 3.28zM45.158 36a1.856 1.856 0 010-2.608 1.856 1.856 0 012.608 0l5.888 5.888-2.608 2.6L45.158 36zM33.102 48.056a1.848 1.848 0 010-2.608 1.856 1.856 0 012.608 0l5.88 5.888-2.6 2.608-5.888-5.888zm5.008 9.016l1.424-1.432 3.736-3.736 8.344-8.328 3.736-3.736 1.432-1.44a1.381 1.381 0 011-.416 1.368 1.368 0 01.992.416l.728.72a1.407 1.407 0 01.408 1 1.392 1.392 0 01-.408.992l-18.664 18.68a1.44 1.44 0 01-1.992 0l-.72-.728a1.368 1.368 0 01-.416-.992 1.383 1.383 0 01.4-1z" fill="#fff"/><path d="M36.11 58.072a2.99 2.99 0 00.88 2.128l.72.72a3 3 0 002.136.88c.404.002.804-.08 1.176-.24L44.454 65a14.232 14.232 0 0010.128 4.192 14.092 14.092 0 004.112-.6L62.91 72.8a.8.8 0 001.128 0l1.352-1.352 5.088 5.088a.8.8 0 001.128 0l4.648-4.648a.8.8 0 000-1.128l-5.088-5.088 1.344-1.32a.802.802 0 000-1.152l-4.24-4.24c.402-1.334.604-2.72.6-4.112a14.233 14.233 0 00-4.192-10.128l-3.368-3.408c.16-.371.241-.772.24-1.176A2.998 2.998 0 0060.67 38l-.72-.72a3.096 3.096 0 00-4.264 0l-.864.864-5.88-5.888a3.45 3.45 0 00-5.737 1.048 3.448 3.448 0 00.865 3.824l5.888 5.888-7.2 7.2-5.92-5.896a3.449 3.449 0 10-4.872 4.872l5.888 5.88-.864.864a3 3 0 00-.88 2.136zM74.582 71.36l-3.512 3.512-4.52-4.52 3.512-3.512 4.52 4.52zm-3.736-7.568l-1.352 1.344-4.648 4.648-1.344 1.352L60.342 68a14.296 14.296 0 007.368-7.368l3.136 3.16zM63.574 45.88A12.72 12.72 0 1145.59 63.864l-3.28-3.28L60.294 42.6l3.28 3.28zM45.158 36a1.856 1.856 0 010-2.608 1.856 1.856 0 012.608 0l5.888 5.888-2.608 2.6L45.158 36zM33.102 48.056a1.848 1.848 0 010-2.608 1.856 1.856 0 012.608 0l5.88 5.888-2.6 2.608-5.888-5.888zm5.008 9.016l1.424-1.432 3.736-3.736 8.344-8.328 3.736-3.736 1.432-1.44a1.381 1.381 0 011-.416 1.368 1.368 0 01.992.416l.728.72a1.407 1.407 0 01.408 1 1.392 1.392 0 01-.408.992l-18.664 18.68a1.44 1.44 0 01-1.992 0l-.72-.728a1.368 1.368 0 01-.416-.992 1.383 1.383 0 01.4-1z" stroke="#fff" stroke-width=".6" mask="url(#path-1-outside-1_208_101)"/><path d="M19.436 42.85h0l-.72-.72.72.72zm0 0a3.174 3.174 0 004.475 0h0m-4.475 0h4.476m0 0l18.624-18.68h0M23.912 42.85l18.624-18.68m0 0a3.174 3.174 0 000-4.476h0m0 4.476v-4.476m0 0l-.72-.72h0m.72.72l-.72-.72m0 0l-.003-.003m.003.003l-.003-.003m0 0a3.246 3.246 0 00-3.362-.698l-3.379-3.379s0 0 0 0a14.383 14.383 0 00-10.234-4.236m16.975 8.313L16.615 7.093m0 0h0l4.153 4.146a14.235 14.235 0 014.07-.581m-8.223-3.565a.95.95 0 00-1.34 0h0m1.34 0h-1.34m9.563 3.565s0 0 0 0v.15-.15s0 0 0 0zm-9.562-3.564L14.03 8.34m1.246-1.246L14.03 8.34m0 0L9.024 3.326h0a.95.95 0 00-1.34 0h0L3.036 7.974h0a.95.95 0 000 1.34h0l4.983 4.983-1.215 1.244a.95.95 0 000 1.366h.002l4.174 4.176a14.238 14.238 0 00-.58 4.069M14.03 8.34l4.686 33.79a3.15 3.15 0 01-.924-2.242M10.4 25.152s0 0 0 0h.15-.15s0 0 0 0zm0 0a14.383 14.383 0 004.236 10.234l3.369 3.361c-.142.363-.215.75-.213 1.14m0 0s0 0 0 0h.15l-.15.002v-.001zm21.78-19.937h.003a1.258 1.258 0 01.892.364h.001l.719.727h0l.002.003a1.219 1.219 0 01.37.883v.004a1.234 1.234 0 01-.356.891s0 0 0 0l-18.67 18.67v.001a1.282 1.282 0 01-1.782 0h-.001l-.726-.719s0 0 0 0a1.257 1.257 0 01-.364-.893v-.002a1.242 1.242 0 01.364-.885h0l18.664-18.68a1.241 1.241 0 01.885-.364zm-14.734-7.392h0a12.45 12.45 0 018.885 3.683h0l3.175 3.175-17.772 17.772-3.174-3.174s0 0 0 0a12.57 12.57 0 018.886-21.456zM14.68 10.322h0l1.238-1.246 2.899 2.876a14.447 14.447 0 00-7.155 7.155L8.77 16.208l1.245-1.238h0l4.665-4.648zM8.35 5.34l4.308 4.308-3.3 3.3L5.05 8.64l3.3-3.3z" fill="#fff" stroke="#fff" stroke-width=".3"/></svg>