<svg width="88" height="80" fill="none" xmlns="http://www.w3.org/2000/svg"><g filter="url(#filter0_d_208_70)"><path d="M5.446 24.208h4.983v-6.016c0-.389.152-.761.423-1.036a1.436 1.436 0 011.023-.429h51.402c.384 0 .751.154 1.022.43.272.274.424.646.424 1.035v6.026h9.156c.325.002.64.115.893.32.254.206.431.492.505.813l2.458 9.932h4.82c.383 0 .75.154 1.021.429.272.274.424.647.424 1.036v17.579c0 .388-.152.76-.424 1.036a1.436 1.436 0 01-1.022.429h-1.793a8.023 8.023 0 01-2.462 5.312 7.82 7.82 0 01-5.383 2.169H38.574c-.384 0-.752-.155-1.023-.43a1.474 1.474 0 010-2.071 1.436 1.436 0 011.023-.43h28.25a8 8 0 01-1.754-4.56H34.496a8.024 8.024 0 01-2.46 5.319 7.82 7.82 0 01-5.385 2.172h-8.319c-.383 0-.75-.155-1.022-.43a1.475 1.475 0 010-2.071 1.436 1.436 0 011.023-.43h2.226a8 8 0 01-1.754-4.56h-6.93c-.384 0-.752-.154-1.023-.43a1.474 1.474 0 01-.423-1.035v-9.766c0-.389.152-.761.423-1.036a1.436 1.436 0 011.023-.43H61.83v-1.62H11.875c-.384 0-.752-.155-1.023-.43A1.474 1.474 0 0110.43 40v-6.31H7.855a1.44 1.44 0 01-1.022-.428 1.475 1.475 0 010-2.072 1.435 1.435 0 011.022-.429h2.574v-3.623H5.446c-.384 0-.751-.155-1.023-.43a1.475 1.475 0 010-2.071 1.44 1.44 0 011.023-.43zm67.306 2.93h-8.03v8.135h10.073l-2.043-8.135zm8.356 11.065H64.723v14.649h.704v-.049a7.89 7.89 0 01.414-.976l.087-.176c.165-.319.352-.625.559-.918l.106-.147a8.04 8.04 0 01.713-.84l.068-.058c.26-.26.536-.501.828-.723l.078-.059c.307-.218.629-.413.963-.585l.155-.088c.311-.162.633-.302.963-.42l.184-.059a7.682 7.682 0 011.06-.264h.144a7.071 7.071 0 012.343 0h.144c.36.063.713.151 1.06.264l.183.059c.33.121.653.265.964.43l.155.087c.334.172.656.368.963.586l.068.05c.296.223.576.468.838.732l.058.048c.26.266.502.55.723.85l.097.127c.212.311.402.638.568.977l.077.156c.166.334.308.68.425 1.035h.693V38.203zm-3.21 17.09c0-.255-.019-.51-.057-.761a5.058 5.058 0 00-1.67-3.08 4.936 4.936 0 00-3.25-1.226 4.936 4.936 0 00-3.251 1.226 5.058 5.058 0 00-1.67 3.08 5.083 5.083 0 001.402 4.322 4.95 4.95 0 003.523 1.479 4.95 4.95 0 003.524-1.479 5.083 5.083 0 001.46-3.57l-.01.01zm-46.264 0c0-.255-.02-.51-.058-.761a5.058 5.058 0 00-1.67-3.08 4.936 4.936 0 00-3.25-1.226 4.935 4.935 0 00-3.251 1.226 5.058 5.058 0 00-1.67 3.08 5.083 5.083 0 001.402 4.322 4.95 4.95 0 003.523 1.479 4.95 4.95 0 003.524-1.479 5.083 5.083 0 001.46-3.57l-.01.01zM13.32 46.017v6.836h5.841v-.049c.117-.334.255-.66.415-.976l.087-.176c.165-.319.352-.625.559-.918l.106-.147c.218-.296.457-.576.713-.84l.067-.058c.26-.26.537-.501.83-.723l.077-.059c.307-.218.629-.413.963-.585l.154-.088a7.82 7.82 0 01.964-.42l.183-.059a7.684 7.684 0 011.06-.264h.145a7.071 7.071 0 012.342 0h.145c.36.063.713.151 1.06.264l.184.059c.33.121.652.265.963.43l.154.087c.335.172.657.368.964.586l.068.05c.296.223.576.468.838.732l.058.048c.26.266.502.55.723.85l.097.127c.212.311.402.638.568.977l.077.156a7.7 7.7 0 01.424 1.035h27.682v-6.836l-48.51-.04zm0-15.255h12.05c.383 0 .75.154 1.022.43a1.475 1.475 0 010 2.07 1.436 1.436 0 01-1.022.43H13.32v4.883h48.511V27.138h-7.595c-.383 0-.751-.155-1.022-.43a1.475 1.475 0 010-2.071c.271-.275.639-.43 1.022-.43h7.595v-4.55h-48.51v4.56h4.655c.383 0 .751.155 1.022.43a1.475 1.475 0 010 2.072 1.436 1.436 0 01-1.022.428H13.32v3.614z" fill="#fff"/></g><defs><filter id="filter0_d_208_70" x="0" y="0" width="88" height="88" filterUnits="userSpaceOnUse" color-interpolation-filters="sRGB"><feFlood flood-opacity="0" result="BackgroundImageFix"/><feColorMatrix in="SourceAlpha" values="0 0 0 0 0 0 0 0 0 0 0 0 0 0 0 0 0 0 127 0" result="hardAlpha"/><feOffset dy="4"/><feGaussianBlur stdDeviation="2"/><feComposite in2="hardAlpha" operator="out"/><feColorMatrix values="0 0 0 0 0 0 0 0 0 0 0 0 0 0 0 0 0 0 0.25 0"/><feBlend in2="BackgroundImageFix" result="effect1_dropShadow_208_70"/><feBlend in="SourceGraphic" in2="effect1_dropShadow_208_70" result="shape"/></filter></defs></svg>