<svg width="80" height="80" fill="none" xmlns="http://www.w3.org/2000/svg"><g clip-path="url(#clip0_208_79)"><path d="M54.796 44.16l-1.506 1.52-5.153-5.12.08-.08 5.787-5.84 3.33.16c3.25.16 6.342-1.52 7.927-4.4L71.207 20l-3.964-4-6.58 6.64-3.488-3.44 6.66-6.48-4.44-4.48-9.99 6.24c-2.616 1.6-4.201 4.64-4.122 7.76L45.44 26l-5.866 5.84-.08.08-10.306-10.4-3.567-8.4-10.544-3.2-3.885 3.92 3.171 10.64 8.324 3.44 10.307 10.4-.635.64-5.787 5.84-3.33-.16c-3.25-.16-6.342 1.52-7.928 4.4L9.37 59.44l3.964 4 6.58-6.64 3.489 3.52-6.66 6.48 4.44 4.48 9.99-6.24c2.615-1.6 4.201-4.64 4.122-7.76l-.159-3.68 5.867-5.84.555-.56 5.232 5.12-1.585 1.6 14.27 14.24c1.348 1.36 3.092 2 4.836 2 1.744 0 3.488-.72 4.836-2 1.268-1.28 1.982-2.96 1.982-4.88s-.714-3.6-1.982-4.88l-14.35-14.24zM23.956 25.6l-7.451-3.28-2.379-7.68 1.665-1.68 7.77 2.16 3.012 7.68 10.544 10.64-2.775 2.8L23.957 25.6zm23.626 1.2l-.159-4.88c0-2.24 1.11-4.4 2.934-5.52l8.483-5.2 1.506 1.36-6.58 6.64 7.056 7.12 6.58-6.64.872.88-4.915 8.64c-1.269 2-3.33 3.28-5.709 3.12l-4.44-.24-20.295 20.64.08 4.88c0 2.24-1.11 4.4-2.934 5.52l-8.403 5.28-1.507-1.36 6.58-6.64-7.055-7.12-6.58 6.64-.873-.88 4.916-8.64c1.268-2 3.33-3.28 5.708-3.12l4.44.24L47.582 26.8zM43.38 45.6l3.092-3.12 5.153 4.96-3.092 3.12-5.153-4.96zm24.101 20.8c-1.744 1.76-4.44 1.76-6.184 0L48.771 53.92l6.184-6.24 12.526 12.48c.714.88 1.269 1.84 1.269 3.12s-.397 2.24-1.269 3.12z" fill="#fff"/></g><defs><clipPath id="clip0_208_79"><path fill="#fff" d="M0 0h80v80H0z"/></clipPath></defs></svg>