<svg width="80" height="80" fill="none" xmlns="http://www.w3.org/2000/svg"><path d="M17.5 45a1.25 1.25 0 00-1.25 1.25v5a1.25 1.25 0 002.5 0v-5A1.25 1.25 0 0017.5 45zm5 2.5a1.25 1.25 0 00-1.25 1.25v5a1.25 1.25 0 002.5 0v-5a1.25 1.25 0 00-1.25-1.25zm45.593 6.709a1.25 1.25 0 00-1.4 2.07A7.5 7.5 0 1162.5 55a1.25 1.25 0 000-2.5 10 10 0 105.593 1.709z" fill="#fff"/><path d="M68.75 48.875V21.25a1.25 1.25 0 00-.614-1.076l-27.5-16.25a1.25 1.25 0 00-1.272 0l-27.5 16.25c-.027.015-.045.037-.07.055-.025.017-.049.037-.074.057a1.232 1.232 0 00-.276.305c0 .009-.015.014-.02.023v.008c-.07.127-.118.266-.141.41 0 .037-.012.072-.015.11-.004.037-.018.07-.018.108v32.5a1.249 1.249 0 00.614 1.076l27.5 16.25c.033.016.067.03.101.043.034.017.07.032.105.044a1.114 1.114 0 00.86 0 .981.981 0 00.106-.044c.033-.016.068-.024.1-.043l7.464-4.411a14.993 14.993 0 1020.65-17.79zM40 6.45l6.5 3.841-9.638 5.695a1.25 1.25 0 101.273 2.154l10.824-6.391 6.5 3.841-25.043 14.794-6.5-3.841 10.472-6.188a1.25 1.25 0 00-1.273-2.154l-11.656 6.89-6.502-3.842L40 6.45zM22.709 28.735l6.457 3.816v8.346l-6.457-3.816v-8.346zM41.25 67.81v-4.06a1.25 1.25 0 00-2.5 0v4.06l-25-14.773V23.441l6.459 3.816v10.537a1.251 1.251 0 00.614 1.077l8.957 5.294a1.25 1.25 0 001.886-1.076v-9.062l7.084 4.187V58.75a1.25 1.25 0 002.5 0V38.214l22.655-13.388a1.25 1.25 0 10-1.273-2.152L40 36.048l-7.125-4.21 25.042-14.8 8.333 4.924V48A14.94 14.94 0 0047.5 62.5c0 .523.028 1.046.083 1.566L41.25 67.81zM62.5 75A12.5 12.5 0 1175 62.5 12.514 12.514 0 0162.5 75z" fill="#fff"/><path d="M59.634 62.866a1.25 1.25 0 00-1.768 1.767l1.875 1.876a1.25 1.25 0 001.768 0l5.625-5.626a1.25 1.25 0 00-1.768-1.767l-4.741 4.741-.991-.991z" fill="#fff"/></svg>