<svg width="80" height="80" viewBox="0 0 80 80" fill="none" xmlns="http://www.w3.org/2000/svg">
<mask id="path-1-outside-1_208_101" maskUnits="userSpaceOnUse" x="29.8524" y="30.1426" width="47" height="47" fill="black">
<rect fill="white" x="29.8524" y="30.1426" width="47" height="47"/>
<path d="M36.1097 58.0719C36.1085 58.4671 36.1857 58.8587 36.3368 59.2239C36.4878 59.5892 36.7097 59.9209 36.9897 60.1999L37.7097 60.9199C37.9899 61.2004 38.323 61.4227 38.6896 61.5737C39.0562 61.7248 39.4492 61.8016 39.8457 61.7999C40.25 61.8015 40.6503 61.7198 41.0217 61.5599L44.4537 64.9999C45.781 66.3334 47.3595 67.3905 49.0979 68.11C50.8364 68.8296 52.7002 69.1973 54.5817 69.1919C55.9745 69.1962 57.3602 68.994 58.6937 68.5919L62.9097 72.7999C63.0596 72.9489 63.2623 73.0325 63.4737 73.0325C63.685 73.0325 63.8878 72.9489 64.0377 72.7999L65.3897 71.4479L70.4777 76.5359C70.5524 76.61 70.6411 76.6687 70.7386 76.7085C70.836 76.7483 70.9404 76.7685 71.0457 76.7679C71.2556 76.767 71.4567 76.6837 71.6057 76.5359L76.2537 71.8879C76.4027 71.738 76.4863 71.5352 76.4863 71.3239C76.4863 71.1125 76.4027 70.9098 76.2537 70.7599L71.1657 65.6719L72.5097 64.3519C72.5871 64.2772 72.6487 64.1878 72.6908 64.0888C72.7328 63.9898 72.7545 63.8834 72.7545 63.7759C72.7545 63.6683 72.7328 63.5619 72.6908 63.4629C72.6487 63.364 72.5871 63.2745 72.5097 63.1999L68.2697 58.9599C68.6719 57.6264 68.8741 56.2406 68.8697 54.8479C68.8751 52.9664 68.5074 51.1025 67.7879 49.3641C67.0683 47.6257 66.0112 46.0471 64.6777 44.7199L61.3097 41.3119C61.4696 40.9405 61.5513 40.5402 61.5497 40.1359C61.5515 39.7393 61.4746 39.3464 61.3235 38.9798C61.1725 38.6131 60.9503 38.2801 60.6697 37.9999L59.9497 37.2799C59.3743 36.7334 58.6112 36.4288 57.8177 36.4288C57.0242 36.4288 56.261 36.7334 55.6857 37.2799L54.8217 38.1439L48.9417 32.2558C48.6269 31.9138 48.2462 31.6389 47.8225 31.4477C47.3988 31.2565 46.9408 31.153 46.476 31.1433C46.0113 31.1337 45.5494 31.2181 45.1181 31.3915C44.6868 31.5649 44.295 31.8238 43.9663 32.1525C43.6376 32.4812 43.3788 32.873 43.2053 33.3042C43.0319 33.7355 42.9475 34.1974 42.9572 34.6622C42.9668 35.127 43.0704 35.585 43.2615 36.0087C43.4527 36.4324 43.7276 36.8131 44.0697 37.1279L49.9577 43.0159L42.7577 50.2159L36.8377 44.3199C36.5229 43.9778 36.1422 43.7029 35.7185 43.5117C35.2948 43.3205 34.8368 43.217 34.372 43.2073C33.9073 43.1977 33.4454 43.2821 33.0141 43.4555C32.5828 43.6289 32.191 43.8878 31.8623 44.2165C31.5336 44.5452 31.2748 44.937 31.1013 45.3683C30.9279 45.7995 30.8435 46.2615 30.8532 46.7262C30.8628 47.191 30.9664 47.649 31.1575 48.0727C31.3487 48.4964 31.6236 48.8771 31.9657 49.1919L37.8537 55.0719L36.9897 55.9359C36.7091 56.2161 36.4869 56.5491 36.3358 56.9158C36.1848 57.2824 36.1079 57.6753 36.1097 58.0719ZM74.5817 71.3599L71.0697 74.8719L66.5497 70.3519L70.0617 66.8399L74.5817 71.3599ZM70.8457 63.7919L69.4937 65.1359L64.8457 69.7839L63.5017 71.1359L60.3417 67.9999C63.6372 66.5582 66.2681 63.9273 67.7097 60.6319L70.8457 63.7919ZM63.5737 45.8799C64.7997 47.0505 65.7793 48.4544 66.4551 50.009C67.1308 51.5636 67.489 53.2377 67.5085 54.9327C67.5281 56.6277 67.2087 58.3095 66.569 59.8794C65.9294 61.4492 64.9824 62.8753 63.7838 64.074C62.5851 65.2726 61.159 66.2196 59.5892 66.8592C58.0194 67.4989 56.3375 67.8183 54.6425 67.7987C52.9475 67.7791 51.2735 67.421 49.7188 66.7452C48.1642 66.0695 46.7603 65.0899 45.5897 63.8639L42.3097 60.5839L60.2937 42.5999L63.5737 45.8799ZM45.1577 35.9999C44.8147 35.6525 44.6224 35.184 44.6224 34.6959C44.6224 34.2077 44.8147 33.7392 45.1577 33.3919C45.5051 33.0489 45.9735 32.8566 46.4617 32.8566C46.9498 32.8566 47.4183 33.0489 47.7657 33.3919L53.6537 39.2799L51.0457 41.8799L45.1577 35.9999ZM33.1017 48.0559C32.7568 47.7095 32.5631 47.2406 32.5631 46.7519C32.5631 46.2631 32.7568 45.7942 33.1017 45.4479C33.4491 45.1049 33.9175 44.9126 34.4057 44.9126C34.8938 44.9126 35.3623 45.1049 35.7097 45.4479L41.5897 51.3359L38.9897 53.9439L33.1017 48.0559ZM38.1097 57.0719L39.5337 55.6399L43.2697 51.9039L51.6137 43.5759L55.3497 39.8399L56.7817 38.3999C56.9118 38.2668 57.0675 38.1614 57.2393 38.09C57.4111 38.0185 57.5956 37.9824 57.7817 37.9839C57.9666 37.9826 58.1498 38.0188 58.3203 38.0903C58.4908 38.1618 58.645 38.2671 58.7737 38.3999L59.5017 39.1199C59.6322 39.2515 59.7354 39.4076 59.8054 39.5792C59.8754 39.7508 59.9108 39.9345 59.9097 40.1199C59.9107 40.304 59.8751 40.4864 59.8051 40.6567C59.735 40.827 59.6319 40.9817 59.5017 41.1119L40.8377 59.7919C40.5696 60.0486 40.2128 60.1919 39.8417 60.1919C39.4705 60.1919 39.1137 60.0486 38.8457 59.7919L38.1257 59.0639C37.9929 58.9352 37.8876 58.781 37.8161 58.6105C37.7446 58.44 37.7084 58.2567 37.7097 58.0719C37.7061 57.8869 37.7397 57.7031 37.8084 57.5314C37.8771 57.3596 37.9796 57.2033 38.1097 57.0719Z"/>
</mask>
<path d="M36.1097 58.0719C36.1085 58.4671 36.1857 58.8587 36.3368 59.2239C36.4878 59.5892 36.7097 59.9209 36.9897 60.1999L37.7097 60.9199C37.9899 61.2004 38.323 61.4227 38.6896 61.5737C39.0562 61.7248 39.4492 61.8016 39.8457 61.7999C40.25 61.8015 40.6503 61.7198 41.0217 61.5599L44.4537 64.9999C45.781 66.3334 47.3595 67.3905 49.0979 68.11C50.8364 68.8296 52.7002 69.1973 54.5817 69.1919C55.9745 69.1962 57.3602 68.994 58.6937 68.5919L62.9097 72.7999C63.0596 72.9489 63.2623 73.0325 63.4737 73.0325C63.685 73.0325 63.8878 72.9489 64.0377 72.7999L65.3897 71.4479L70.4777 76.5359C70.5524 76.61 70.6411 76.6687 70.7386 76.7085C70.836 76.7483 70.9404 76.7685 71.0457 76.7679C71.2556 76.767 71.4567 76.6837 71.6057 76.5359L76.2537 71.8879C76.4027 71.738 76.4863 71.5352 76.4863 71.3239C76.4863 71.1125 76.4027 70.9098 76.2537 70.7599L71.1657 65.6719L72.5097 64.3519C72.5871 64.2772 72.6487 64.1878 72.6908 64.0888C72.7328 63.9898 72.7545 63.8834 72.7545 63.7759C72.7545 63.6683 72.7328 63.5619 72.6908 63.4629C72.6487 63.364 72.5871 63.2745 72.5097 63.1999L68.2697 58.9599C68.6719 57.6264 68.8741 56.2406 68.8697 54.8479C68.8751 52.9664 68.5074 51.1025 67.7879 49.3641C67.0683 47.6257 66.0112 46.0471 64.6777 44.7199L61.3097 41.3119C61.4696 40.9405 61.5513 40.5402 61.5497 40.1359C61.5515 39.7393 61.4746 39.3464 61.3235 38.9798C61.1725 38.6131 60.9503 38.2801 60.6697 37.9999L59.9497 37.2799C59.3743 36.7334 58.6112 36.4288 57.8177 36.4288C57.0242 36.4288 56.261 36.7334 55.6857 37.2799L54.8217 38.1439L48.9417 32.2558C48.6269 31.9138 48.2462 31.6389 47.8225 31.4477C47.3988 31.2565 46.9408 31.153 46.476 31.1433C46.0113 31.1337 45.5494 31.2181 45.1181 31.3915C44.6868 31.5649 44.295 31.8238 43.9663 32.1525C43.6376 32.4812 43.3788 32.873 43.2053 33.3042C43.0319 33.7355 42.9475 34.1974 42.9572 34.6622C42.9668 35.127 43.0704 35.585 43.2615 36.0087C43.4527 36.4324 43.7276 36.8131 44.0697 37.1279L49.9577 43.0159L42.7577 50.2159L36.8377 44.3199C36.5229 43.9778 36.1422 43.7029 35.7185 43.5117C35.2948 43.3205 34.8368 43.217 34.372 43.2073C33.9073 43.1977 33.4454 43.2821 33.0141 43.4555C32.5828 43.6289 32.191 43.8878 31.8623 44.2165C31.5336 44.5452 31.2748 44.937 31.1013 45.3683C30.9279 45.7995 30.8435 46.2615 30.8532 46.7262C30.8628 47.191 30.9664 47.649 31.1575 48.0727C31.3487 48.4964 31.6236 48.8771 31.9657 49.1919L37.8537 55.0719L36.9897 55.9359C36.7091 56.2161 36.4869 56.5491 36.3358 56.9158C36.1848 57.2824 36.1079 57.6753 36.1097 58.0719ZM74.5817 71.3599L71.0697 74.8719L66.5497 70.3519L70.0617 66.8399L74.5817 71.3599ZM70.8457 63.7919L69.4937 65.1359L64.8457 69.7839L63.5017 71.1359L60.3417 67.9999C63.6372 66.5582 66.2681 63.9273 67.7097 60.6319L70.8457 63.7919ZM63.5737 45.8799C64.7997 47.0505 65.7793 48.4544 66.4551 50.009C67.1308 51.5636 67.489 53.2377 67.5085 54.9327C67.5281 56.6277 67.2087 58.3095 66.569 59.8794C65.9294 61.4492 64.9824 62.8753 63.7838 64.074C62.5851 65.2726 61.159 66.2196 59.5892 66.8592C58.0194 67.4989 56.3375 67.8183 54.6425 67.7987C52.9475 67.7791 51.2735 67.421 49.7188 66.7452C48.1642 66.0695 46.7603 65.0899 45.5897 63.8639L42.3097 60.5839L60.2937 42.5999L63.5737 45.8799ZM45.1577 35.9999C44.8147 35.6525 44.6224 35.184 44.6224 34.6959C44.6224 34.2077 44.8147 33.7392 45.1577 33.3919C45.5051 33.0489 45.9735 32.8566 46.4617 32.8566C46.9498 32.8566 47.4183 33.0489 47.7657 33.3919L53.6537 39.2799L51.0457 41.8799L45.1577 35.9999ZM33.1017 48.0559C32.7568 47.7095 32.5631 47.2406 32.5631 46.7519C32.5631 46.2631 32.7568 45.7942 33.1017 45.4479C33.4491 45.1049 33.9175 44.9126 34.4057 44.9126C34.8938 44.9126 35.3623 45.1049 35.7097 45.4479L41.5897 51.3359L38.9897 53.9439L33.1017 48.0559ZM38.1097 57.0719L39.5337 55.6399L43.2697 51.9039L51.6137 43.5759L55.3497 39.8399L56.7817 38.3999C56.9118 38.2668 57.0675 38.1614 57.2393 38.09C57.4111 38.0185 57.5956 37.9824 57.7817 37.9839C57.9666 37.9826 58.1498 38.0188 58.3203 38.0903C58.4908 38.1618 58.645 38.2671 58.7737 38.3999L59.5017 39.1199C59.6322 39.2515 59.7354 39.4076 59.8054 39.5792C59.8754 39.7508 59.9108 39.9345 59.9097 40.1199C59.9107 40.304 59.8751 40.4864 59.8051 40.6567C59.735 40.827 59.6319 40.9817 59.5017 41.1119L40.8377 59.7919C40.5696 60.0486 40.2128 60.1919 39.8417 60.1919C39.4705 60.1919 39.1137 60.0486 38.8457 59.7919L38.1257 59.0639C37.9929 58.9352 37.8876 58.781 37.8161 58.6105C37.7446 58.44 37.7084 58.2567 37.7097 58.0719C37.7061 57.8869 37.7397 57.7031 37.8084 57.5314C37.8771 57.3596 37.9796 57.2033 38.1097 57.0719Z" fill="white"/>
<path d="M36.1097 58.0719C36.1085 58.4671 36.1857 58.8587 36.3368 59.2239C36.4878 59.5892 36.7097 59.9209 36.9897 60.1999L37.7097 60.9199C37.9899 61.2004 38.323 61.4227 38.6896 61.5737C39.0562 61.7248 39.4492 61.8016 39.8457 61.7999C40.25 61.8015 40.6503 61.7198 41.0217 61.5599L44.4537 64.9999C45.781 66.3334 47.3595 67.3905 49.0979 68.11C50.8364 68.8296 52.7002 69.1973 54.5817 69.1919C55.9745 69.1962 57.3602 68.994 58.6937 68.5919L62.9097 72.7999C63.0596 72.9489 63.2623 73.0325 63.4737 73.0325C63.685 73.0325 63.8878 72.9489 64.0377 72.7999L65.3897 71.4479L70.4777 76.5359C70.5524 76.61 70.6411 76.6687 70.7386 76.7085C70.836 76.7483 70.9404 76.7685 71.0457 76.7679C71.2556 76.767 71.4567 76.6837 71.6057 76.5359L76.2537 71.8879C76.4027 71.738 76.4863 71.5352 76.4863 71.3239C76.4863 71.1125 76.4027 70.9098 76.2537 70.7599L71.1657 65.6719L72.5097 64.3519C72.5871 64.2772 72.6487 64.1878 72.6908 64.0888C72.7328 63.9898 72.7545 63.8834 72.7545 63.7759C72.7545 63.6683 72.7328 63.5619 72.6908 63.4629C72.6487 63.364 72.5871 63.2745 72.5097 63.1999L68.2697 58.9599C68.6719 57.6264 68.8741 56.2406 68.8697 54.8479C68.8751 52.9664 68.5074 51.1025 67.7879 49.3641C67.0683 47.6257 66.0112 46.0471 64.6777 44.7199L61.3097 41.3119C61.4696 40.9405 61.5513 40.5402 61.5497 40.1359C61.5515 39.7393 61.4746 39.3464 61.3235 38.9798C61.1725 38.6131 60.9503 38.2801 60.6697 37.9999L59.9497 37.2799C59.3743 36.7334 58.6112 36.4288 57.8177 36.4288C57.0242 36.4288 56.261 36.7334 55.6857 37.2799L54.8217 38.1439L48.9417 32.2558C48.6269 31.9138 48.2462 31.6389 47.8225 31.4477C47.3988 31.2565 46.9408 31.153 46.476 31.1433C46.0113 31.1337 45.5494 31.2181 45.1181 31.3915C44.6868 31.5649 44.295 31.8238 43.9663 32.1525C43.6376 32.4812 43.3788 32.873 43.2053 33.3042C43.0319 33.7355 42.9475 34.1974 42.9572 34.6622C42.9668 35.127 43.0704 35.585 43.2615 36.0087C43.4527 36.4324 43.7276 36.8131 44.0697 37.1279L49.9577 43.0159L42.7577 50.2159L36.8377 44.3199C36.5229 43.9778 36.1422 43.7029 35.7185 43.5117C35.2948 43.3205 34.8368 43.217 34.372 43.2073C33.9073 43.1977 33.4454 43.2821 33.0141 43.4555C32.5828 43.6289 32.191 43.8878 31.8623 44.2165C31.5336 44.5452 31.2748 44.937 31.1013 45.3683C30.9279 45.7995 30.8435 46.2615 30.8532 46.7262C30.8628 47.191 30.9664 47.649 31.1575 48.0727C31.3487 48.4964 31.6236 48.8771 31.9657 49.1919L37.8537 55.0719L36.9897 55.9359C36.7091 56.2161 36.4869 56.5491 36.3358 56.9158C36.1848 57.2824 36.1079 57.6753 36.1097 58.0719ZM74.5817 71.3599L71.0697 74.8719L66.5497 70.3519L70.0617 66.8399L74.5817 71.3599ZM70.8457 63.7919L69.4937 65.1359L64.8457 69.7839L63.5017 71.1359L60.3417 67.9999C63.6372 66.5582 66.2681 63.9273 67.7097 60.6319L70.8457 63.7919ZM63.5737 45.8799C64.7997 47.0505 65.7793 48.4544 66.4551 50.009C67.1308 51.5636 67.489 53.2377 67.5085 54.9327C67.5281 56.6277 67.2087 58.3095 66.569 59.8794C65.9294 61.4492 64.9824 62.8753 63.7838 64.074C62.5851 65.2726 61.159 66.2196 59.5892 66.8592C58.0194 67.4989 56.3375 67.8183 54.6425 67.7987C52.9475 67.7791 51.2735 67.421 49.7188 66.7452C48.1642 66.0695 46.7603 65.0899 45.5897 63.8639L42.3097 60.5839L60.2937 42.5999L63.5737 45.8799ZM45.1577 35.9999C44.8147 35.6525 44.6224 35.184 44.6224 34.6959C44.6224 34.2077 44.8147 33.7392 45.1577 33.3919C45.5051 33.0489 45.9735 32.8566 46.4617 32.8566C46.9498 32.8566 47.4183 33.0489 47.7657 33.3919L53.6537 39.2799L51.0457 41.8799L45.1577 35.9999ZM33.1017 48.0559C32.7568 47.7095 32.5631 47.2406 32.5631 46.7519C32.5631 46.2631 32.7568 45.7942 33.1017 45.4479C33.4491 45.1049 33.9175 44.9126 34.4057 44.9126C34.8938 44.9126 35.3623 45.1049 35.7097 45.4479L41.5897 51.3359L38.9897 53.9439L33.1017 48.0559ZM38.1097 57.0719L39.5337 55.6399L43.2697 51.9039L51.6137 43.5759L55.3497 39.8399L56.7817 38.3999C56.9118 38.2668 57.0675 38.1614 57.2393 38.09C57.4111 38.0185 57.5956 37.9824 57.7817 37.9839C57.9666 37.9826 58.1498 38.0188 58.3203 38.0903C58.4908 38.1618 58.645 38.2671 58.7737 38.3999L59.5017 39.1199C59.6322 39.2515 59.7354 39.4076 59.8054 39.5792C59.8754 39.7508 59.9108 39.9345 59.9097 40.1199C59.9107 40.304 59.8751 40.4864 59.8051 40.6567C59.735 40.827 59.6319 40.9817 59.5017 41.1119L40.8377 59.7919C40.5696 60.0486 40.2128 60.1919 39.8417 60.1919C39.4705 60.1919 39.1137 60.0486 38.8457 59.7919L38.1257 59.0639C37.9929 58.9352 37.8876 58.781 37.8161 58.6105C37.7446 58.44 37.7084 58.2567 37.7097 58.0719C37.7061 57.8869 37.7397 57.7031 37.8084 57.5314C37.8771 57.3596 37.9796 57.2033 38.1097 57.0719Z" stroke="white" stroke-width="0.6" mask="url(#path-1-outside-1_208_101)"/>
<path d="M19.4359 42.8502L19.4356 42.8499L18.7157 42.13L19.4359 42.8502ZM19.4359 42.8502C20.0306 43.4414 20.8351 43.7733 21.6737 43.7733C22.5123 43.7733 23.3168 43.4414 23.9114 42.8502L23.9119 42.8498M19.4359 42.8502L23.9119 42.8498M23.9119 42.8498L42.5359 24.1698L42.5361 24.1696M23.9119 42.8498L42.5361 24.1696M42.5361 24.1696C43.1273 23.5749 43.4591 22.7704 43.4591 21.9319C43.4591 21.0933 43.1273 20.2888 42.5361 19.6941L42.5358 19.6938M42.5361 24.1696L42.5358 19.6938M42.5358 19.6938L41.8158 18.9738L41.8158 18.9738M42.5358 19.6938L41.8158 18.9738M41.8158 18.9738L41.8133 18.9714M41.8158 18.9738L41.8133 18.9714M41.8133 18.9714C41.3619 18.5404 40.7959 18.2487 40.183 18.1312C39.6028 18.02 39.004 18.0692 38.4508 18.2728L35.072 14.894C35.0719 14.894 35.0719 14.8939 35.0718 14.8938C33.7306 13.5464 32.1355 12.4782 30.3788 11.7511C28.6222 11.024 26.7388 10.6524 24.8377 10.6579M41.8133 18.9714L16.6154 7.09347M16.6154 7.09347L16.6157 7.09369L20.7684 11.2386C22.0895 10.8492 23.4601 10.6536 24.8377 10.6579M16.6154 7.09347C16.4374 6.91653 16.1967 6.81722 15.9457 6.81722C15.6947 6.81722 15.4539 6.91653 15.2759 7.09347L15.2756 7.09379M16.6154 7.09347L15.2756 7.09379M24.8377 10.6579C24.8378 10.6579 24.838 10.6579 24.8382 10.6579L24.8377 10.8079L24.8373 10.6579C24.8374 10.6579 24.8375 10.6579 24.8377 10.6579ZM15.2756 7.09379L14.0298 8.33964M15.2756 7.09379L14.0298 8.33964M14.0298 8.33964L9.02384 3.32587L9.02344 3.32547C8.84545 3.14853 8.60467 3.04922 8.35369 3.04922C8.10272 3.04922 7.86194 3.14853 7.68394 3.32547L7.68363 3.32579L3.03563 7.97379L3.03531 7.9741C2.85837 8.1521 2.75906 8.39288 2.75906 8.64385C2.75906 8.89483 2.85837 9.13561 3.03531 9.3136L3.03563 9.31392L8.01882 14.2971L6.80389 15.5415C6.71275 15.6298 6.64021 15.7354 6.59057 15.8522C6.54062 15.9698 6.51487 16.0962 6.51487 16.2239C6.51487 16.3516 6.54062 16.4779 6.59057 16.5955C6.64033 16.7125 6.7131 16.8184 6.80456 16.9069C6.8049 16.9072 6.80525 16.9075 6.8056 16.9079L10.9804 21.0827C10.5911 22.4037 10.3954 23.7744 10.3997 25.1519M14.0298 8.33964L18.7156 42.1299C18.4211 41.8357 18.1877 41.486 18.0292 41.1011C17.8706 40.7163 17.7899 40.304 17.7917 39.8878M10.3997 25.1519C10.3997 25.1517 10.3997 25.1516 10.3997 25.1514L10.5497 25.1519L10.3997 25.1523C10.3997 25.1522 10.3997 25.152 10.3997 25.1519ZM10.3997 25.1519C10.3943 27.053 10.7659 28.9364 11.4929 30.693C12.2201 32.4497 13.2883 34.0449 14.6359 35.3862L18.0049 38.7474C17.8627 39.1104 17.7902 39.4973 17.7917 39.8878M17.7917 39.8878C17.7917 39.8876 17.7917 39.8874 17.7917 39.8872L17.9417 39.8879L17.7917 39.8885C17.7917 39.8882 17.7917 39.888 17.7917 39.8878ZM39.5729 19.9499L39.5746 19.9499C39.7402 19.9488 39.9044 19.9805 40.0577 20.043C40.2108 20.1055 40.35 20.1975 40.4675 20.3138C40.4677 20.314 40.4679 20.3142 40.4681 20.3144L41.187 21.0413L41.187 21.0414L41.1893 21.0436C41.3075 21.1581 41.4013 21.2955 41.465 21.4473C41.5286 21.5991 41.5608 21.7622 41.5596 21.9268L41.5597 21.9307C41.5629 22.0956 41.5329 22.2595 41.4717 22.4126C41.4105 22.5656 41.3193 22.7048 41.2034 22.822C41.2033 22.8221 41.2032 22.8222 41.2031 22.8223L22.5334 41.4921C22.5331 41.4924 22.5327 41.4927 22.5324 41.493C22.2934 41.7239 21.9741 41.853 21.6417 41.853C21.3092 41.853 20.9897 41.7238 20.7507 41.4927C20.7505 41.4925 20.7502 41.4923 20.75 41.4921L20.0242 40.7743C20.024 40.7741 20.0238 40.7739 20.0237 40.7737C19.9073 40.6562 19.8153 40.5169 19.7529 40.3639C19.6903 40.2105 19.6587 40.0464 19.6597 39.8808L19.6597 39.8791C19.6588 39.7148 19.6905 39.552 19.753 39.4C19.8155 39.2481 19.9075 39.1101 20.0237 38.994L20.0238 38.9939L38.6878 20.3139C38.8039 20.1977 38.9419 20.1057 39.0939 20.0432C39.2458 19.9807 39.4086 19.949 39.5729 19.9499ZM24.8377 12.5579L24.8382 12.5579C26.4895 12.552 28.1254 12.8746 29.6508 13.507C31.1762 14.1394 32.5605 15.0689 33.7232 16.2415L33.7236 16.2419L36.8976 19.4159L19.1257 37.1877L15.9518 34.0138C15.9518 34.0138 15.9518 34.0138 15.9518 34.0138C14.1948 32.2559 12.9984 30.0165 12.5138 27.5788C12.0291 25.1411 12.2781 22.6144 13.2291 20.3182C14.1801 18.0219 15.7905 16.0591 17.8567 14.6778C19.923 13.2965 22.3523 12.5588 24.8377 12.5579ZM14.6796 10.3221L14.6801 10.3216L15.9184 9.07589L18.8167 11.9521C15.6472 13.3965 13.106 15.9378 11.6617 19.1074L8.77 16.2083L10.0154 14.9702L10.0156 14.9701L14.6796 10.3221ZM8.34969 5.33999L12.6576 9.64785L9.35769 12.9477L5.04982 8.63985L8.34969 5.33999Z" fill="white" stroke="white" stroke-width="0.3"/>
</svg>
