<svg width="88" height="80" viewBox="0 0 88 80" fill="none" xmlns="http://www.w3.org/2000/svg">
<g filter="url(#filter0_d_208_70)">
<path d="M5.44578 24.2079H10.4289V18.192C10.4289 17.8035 10.5812 17.4308 10.8524 17.1561C11.1235 16.8814 11.4912 16.7271 11.8747 16.7271H63.2771C63.6606 16.7271 64.0283 16.8814 64.2994 17.1561C64.5706 17.4308 64.7229 17.8035 64.7229 18.192V24.2177H73.8795C74.2042 24.2201 74.5186 24.3331 74.7721 24.5387C75.0256 24.7442 75.2035 25.0301 75.2771 25.3506L77.7349 35.2827H82.5542C82.9377 35.2827 83.3054 35.4371 83.5765 35.7118C83.8477 35.9865 84 36.3591 84 36.7476V54.3267C84 54.7152 83.8477 55.0878 83.5765 55.3626C83.3054 55.6373 82.9377 55.7916 82.5542 55.7916H80.7614C80.6365 57.8152 79.756 59.7148 78.2987 61.1043C76.8414 62.4938 74.9167 63.269 72.9157 63.2725H38.5735C38.19 63.2725 37.8223 63.1182 37.5512 62.8434C37.28 62.5687 37.1277 62.1961 37.1277 61.8076C37.1277 61.4191 37.28 61.0465 37.5512 60.7717C37.8223 60.497 38.19 60.3427 38.5735 60.3427H66.8241C65.7799 59.0475 65.166 57.4514 65.0699 55.7819H34.4964C34.3738 57.8072 33.4943 59.7091 32.0368 61.1007C30.5793 62.4922 28.6532 63.2689 26.6506 63.2725H18.3325C17.9491 63.2725 17.5813 63.1182 17.3102 62.8434C17.0391 62.5687 16.8867 62.1961 16.8867 61.8076C16.8867 61.4191 17.0391 61.0465 17.3102 60.7717C17.5813 60.497 17.9491 60.3427 18.3325 60.3427H20.559C19.5148 59.0475 18.9009 57.4514 18.8048 55.7819H11.8747C11.4912 55.7819 11.1235 55.6275 10.8524 55.3528C10.5812 55.0781 10.4289 54.7055 10.4289 54.317V44.5508C10.4289 44.1623 10.5812 43.7897 10.8524 43.5149C11.1235 43.2402 11.4912 43.0859 11.8747 43.0859H61.8313V41.4647H11.8747C11.4912 41.4647 11.1235 41.3104 10.8524 41.0356C10.5812 40.7609 10.4289 40.3883 10.4289 39.9998V33.6908H7.85542C7.47198 33.6908 7.10423 33.5365 6.8331 33.2618C6.56196 32.9871 6.40964 32.6144 6.40964 32.2259C6.40964 31.8374 6.56196 31.4648 6.8331 31.1901C7.10423 30.9153 7.47198 30.761 7.85542 30.761H10.4289V27.1378H5.44578C5.06233 27.1378 4.6946 26.9834 4.42345 26.7087C4.15232 26.434 4 26.0614 4 25.6728C4 25.2843 4.15232 24.9117 4.42345 24.637C4.6946 24.3623 5.06233 24.2079 5.44578 24.2079ZM72.7518 27.1378H64.7229V35.273H74.7952L72.7518 27.1378ZM81.1084 38.2028H64.7229V52.852H65.4265V52.8032C65.5426 52.4685 65.6811 52.1422 65.841 51.8266L65.9277 51.6508C66.0934 51.3323 66.2802 51.0256 66.4867 50.7328L66.5928 50.5863C66.8112 50.2901 67.0496 50.0095 67.306 49.7464L67.3735 49.6878C67.6332 49.428 67.9102 49.1866 68.2024 48.9651L68.2795 48.9065C68.5868 48.6885 68.9089 48.4927 69.2434 48.3205L69.3976 48.2326C69.7093 48.0711 70.0313 47.9308 70.3614 47.8127L70.5446 47.7541C70.8915 47.6411 71.2457 47.553 71.6048 47.4904H71.7494C72.5248 47.3602 73.3161 47.3602 74.0916 47.4904H74.2361C74.5952 47.553 74.9495 47.6411 75.2964 47.7541L75.4795 47.8127C75.8099 47.934 76.1319 48.0776 76.4434 48.2424L76.5976 48.3303C76.9321 48.5024 77.2542 48.6982 77.5614 48.9163L77.6289 48.9651C77.9248 49.1893 78.205 49.4341 78.4675 49.6976L78.5253 49.7464C78.7855 50.0122 79.027 50.2962 79.2482 50.596L79.3446 50.723C79.5568 51.0344 79.7469 51.3608 79.9133 51.6996L79.9904 51.8559C80.156 52.1902 80.2977 52.5362 80.4145 52.8911H81.1084V38.2028ZM77.8988 55.2936C77.8987 55.0385 77.8793 54.7839 77.841 54.5318C77.6672 53.3353 77.0745 52.2421 76.1712 51.4516C75.2678 50.6612 74.114 50.2263 72.9205 50.2263C71.7269 50.2263 70.5732 50.6612 69.6698 51.4516C68.7665 52.2421 68.1738 53.3353 68 54.5318C67.962 54.7806 67.9426 55.032 67.9422 55.2838C67.9422 56.6229 68.4672 57.9072 69.4017 58.854C70.3362 59.8009 71.6037 60.3329 72.9253 60.3329C74.2469 60.3329 75.5144 59.8009 76.4489 58.854C77.3834 57.9072 77.9084 56.6229 77.9084 55.2838L77.8988 55.2936ZM31.6337 55.2936C31.6336 55.0385 31.6143 54.7839 31.5759 54.5318C31.4021 53.3353 30.8094 52.2421 29.9061 51.4516C29.0028 50.6612 27.849 50.2263 26.6554 50.2263C25.4618 50.2263 24.3081 50.6612 23.4048 51.4516C22.5014 52.2421 21.9087 53.3353 21.7349 54.5318C21.6969 54.7806 21.6776 55.032 21.6771 55.2838C21.6771 56.6229 22.2021 57.9072 23.1366 58.854C24.0711 59.8009 25.3386 60.3329 26.6602 60.3329C27.9818 60.3329 29.2493 59.8009 30.1838 58.854C31.1184 57.9072 31.6434 56.6229 31.6434 55.2838L31.6337 55.2936ZM13.3205 46.0157V52.852H19.1614V52.8032C19.2776 52.4685 19.416 52.1422 19.5759 51.8266L19.6627 51.6508C19.8283 51.3323 20.0151 51.0256 20.2217 50.7328L20.3277 50.5863C20.5462 50.2901 20.7845 50.0095 21.041 49.7464L21.1084 49.6878C21.3681 49.428 21.6451 49.1866 21.9373 48.9651L22.0145 48.9065C22.3218 48.6885 22.6438 48.4927 22.9783 48.3205L23.1325 48.2326C23.4442 48.0711 23.7662 47.9308 24.0964 47.8127L24.2795 47.7541C24.6264 47.6411 24.9807 47.553 25.3398 47.4904H25.4843C26.2598 47.3602 27.0511 47.3602 27.8265 47.4904H27.9711C28.3302 47.553 28.6845 47.6411 29.0313 47.7541L29.2145 47.8127C29.5448 47.934 29.8668 48.0776 30.1783 48.2424L30.3325 48.3303C30.667 48.5024 30.9891 48.6982 31.2964 48.9163L31.3639 48.9651C31.6597 49.1893 31.9399 49.4341 32.2024 49.6976L32.2602 49.7464C32.5204 50.0122 32.7619 50.2962 32.9831 50.596L33.0795 50.723C33.2917 51.0344 33.4818 51.3608 33.6482 51.6996L33.7253 51.8559C33.8909 52.1902 34.0327 52.5362 34.1494 52.8911H61.8313V46.0548L13.3205 46.0157ZM13.3205 30.761H25.3687C25.7521 30.761 26.1199 30.9153 26.391 31.1901C26.6621 31.4648 26.8145 31.8374 26.8145 32.2259C26.8145 32.6144 26.6621 32.9871 26.391 33.2618C26.1199 33.5365 25.7521 33.6908 25.3687 33.6908H13.3205V38.5739H61.8313V27.1378H54.2361C53.8527 27.1378 53.485 26.9834 53.2138 26.7087C52.9427 26.434 52.7904 26.0614 52.7904 25.6728C52.7904 25.2843 52.9427 24.9117 53.2138 24.637C53.485 24.3623 53.8527 24.2079 54.2361 24.2079H61.8313V19.6569H13.3205V24.2177H17.9759C18.3593 24.2177 18.7271 24.372 18.9982 24.6467C19.2694 24.9215 19.4217 25.2941 19.4217 25.6826C19.4217 26.0711 19.2694 26.4437 18.9982 26.7185C18.7271 26.9932 18.3593 27.1475 17.9759 27.1475H13.3205V30.761Z" fill="white"/>
</g>
<defs>
<filter id="filter0_d_208_70" x="0" y="0" width="88" height="88" filterUnits="userSpaceOnUse" color-interpolation-filters="sRGB">
<feFlood flood-opacity="0" result="BackgroundImageFix"/>
<feColorMatrix in="SourceAlpha" type="matrix" values="0 0 0 0 0 0 0 0 0 0 0 0 0 0 0 0 0 0 127 0" result="hardAlpha"/>
<feOffset dy="4"/>
<feGaussianBlur stdDeviation="2"/>
<feComposite in2="hardAlpha" operator="out"/>
<feColorMatrix type="matrix" values="0 0 0 0 0 0 0 0 0 0 0 0 0 0 0 0 0 0 0.25 0"/>
<feBlend mode="normal" in2="BackgroundImageFix" result="effect1_dropShadow_208_70"/>
<feBlend mode="normal" in="SourceGraphic" in2="effect1_dropShadow_208_70" result="shape"/>
</filter>
</defs>
</svg>
