<svg width="80" height="80" viewBox="0 0 80 80" fill="none" xmlns="http://www.w3.org/2000/svg">
<g clip-path="url(#clip0_208_79)">
<path d="M54.7964 44.1598L53.2901 45.6797L48.137 40.5597L48.2162 40.4797L54.0036 34.6397L57.3333 34.7997C60.5838 34.9597 63.6757 33.2797 65.2613 30.3997L71.2072 19.9997L67.2433 15.9997L60.6631 22.6397L57.1748 19.1997L63.8343 12.7197L59.3946 8.23975L49.4054 14.4797C46.7892 16.0797 45.2036 19.1197 45.2829 22.2397L45.4415 25.9997L39.5748 31.8397L39.4955 31.9198L29.1892 21.5197L25.6216 13.1197L15.0775 9.91975L11.1928 13.8397L14.364 24.4797L22.6883 27.9198L32.9946 38.3197L32.3604 38.9597L26.573 44.7998L23.2433 44.6397C19.9928 44.4797 16.9009 46.1597 15.3153 49.0397L9.36938 59.4398L13.3333 63.4398L19.9135 56.7998L23.4018 60.3197L16.7424 66.7997L21.182 71.2797L31.1712 65.0398C33.7874 63.4398 35.373 60.3997 35.2937 57.2798L35.1352 53.5998L41.0018 47.7598L41.5568 47.1997L46.7892 52.3198L45.2036 53.9198L59.4739 68.1597C60.8216 69.5197 62.5658 70.1597 64.3099 70.1597C66.0541 70.1597 67.7982 69.4397 69.146 68.1597C70.4144 66.8797 71.1279 65.1997 71.1279 63.2797C71.1279 61.3597 70.4144 59.6798 69.146 58.3997L54.7964 44.1598ZM23.9568 25.5997L16.5045 22.3197L14.1261 14.6397L15.791 12.9597L23.5604 15.1197L26.573 22.7997L37.1171 33.4397L34.3424 36.2397L23.9568 25.5997ZM47.582 26.7997L47.4234 21.9197C47.4234 19.6797 48.5333 17.5197 50.3568 16.3997L58.8397 11.1997L60.346 12.5597L53.7658 19.1997L60.8216 26.3197L67.4018 19.6797L68.2739 20.5597L63.3586 29.1997C62.0901 31.1997 60.0288 32.4797 57.6505 32.3197L53.2108 32.0797L32.9153 52.7198L32.9946 57.5998C32.9946 59.8398 31.8847 61.9997 30.0613 63.1198L21.6577 68.3997L20.1514 67.0398L26.7315 60.3997L19.6757 53.2798L13.0955 59.9198L12.2234 59.0398L17.1388 50.3997C18.4072 48.3997 20.4685 47.1197 22.8469 47.2798L27.2865 47.5198L47.582 26.7997ZM43.3802 45.5998L46.4721 42.4797L51.6252 47.4398L48.5333 50.5597L43.3802 45.5998ZM67.4811 66.3997C65.737 68.1597 63.0415 68.1597 61.2973 66.3997L48.7712 53.9198L54.955 47.6797L67.4811 60.1597C68.1946 61.0397 68.7496 61.9997 68.7496 63.2797C68.7496 64.5597 68.3532 65.5197 67.4811 66.3997Z" fill="white"/>
</g>
<defs>
<clipPath id="clip0_208_79">
<rect width="80" height="80" fill="white"/>
</clipPath>
</defs>
</svg>
