<svg width="80" height="80" viewBox="0 0 80 80" fill="none" xmlns="http://www.w3.org/2000/svg">
<path d="M17.5 45C17.1685 45 16.8505 45.1317 16.6161 45.3661C16.3817 45.6005 16.25 45.9185 16.25 46.25V51.25C16.25 51.5815 16.3817 51.8995 16.6161 52.1339C16.8505 52.3683 17.1685 52.5 17.5 52.5C17.8315 52.5 18.1495 52.3683 18.3839 52.1339C18.6183 51.8995 18.75 51.5815 18.75 51.25V46.25C18.75 45.9185 18.6183 45.6005 18.3839 45.3661C18.1495 45.1317 17.8315 45 17.5 45Z" fill="white"/>
<path d="M22.5 47.5C22.1685 47.5 21.8505 47.6317 21.6161 47.8661C21.3817 48.1005 21.25 48.4185 21.25 48.75V53.75C21.25 54.0815 21.3817 54.3995 21.6161 54.6339C21.8505 54.8683 22.1685 55 22.5 55C22.8315 55 23.1495 54.8683 23.3839 54.6339C23.6183 54.3995 23.75 54.0815 23.75 53.75V48.75C23.75 48.4185 23.6183 48.1005 23.3839 47.8661C23.1495 47.6317 22.8315 47.5 22.5 47.5Z" fill="white"/>
<path d="M68.0925 54.2088C67.8179 54.0343 67.4861 53.9737 67.1676 54.0399C66.8491 54.1062 66.5689 54.294 66.3866 54.5635C66.2044 54.833 66.1344 55.1629 66.1915 55.4832C66.2486 55.8035 66.4283 56.0889 66.6925 56.2787C68.1832 57.2825 69.264 58.7881 69.738 60.5216C70.2121 62.2551 70.048 64.1011 69.2755 65.7238C68.503 67.3464 67.1735 68.6378 65.5291 69.3627C63.8847 70.0877 62.0346 70.198 60.3156 69.6737C58.5967 69.1494 57.1231 68.0253 56.1632 66.506C55.2033 64.9867 54.8208 63.1733 55.0854 61.3957C55.35 59.6182 56.2441 57.9947 57.605 56.8209C58.9658 55.647 60.7029 55.0009 62.5 55C62.8315 55 63.1495 54.8683 63.3839 54.6339C63.6183 54.3995 63.75 54.0815 63.75 53.75C63.75 53.4185 63.6183 53.1005 63.3839 52.8661C63.1495 52.6317 62.8315 52.5 62.5 52.5C60.104 52.5004 57.7877 53.3612 55.9729 54.9255C54.158 56.4899 52.9652 58.6539 52.6114 61.0237C52.2577 63.3935 52.7666 65.8115 54.0455 67.8376C55.3244 69.8638 57.2883 71.3634 59.5798 72.0635C61.8712 72.7637 64.3379 72.6178 66.5309 71.6524C68.7238 70.6871 70.4973 68.9664 71.5284 66.8036C72.5596 64.6408 72.7799 62.1797 72.1493 59.8681C71.5187 57.5566 70.0791 55.5483 68.0925 54.2088Z" fill="white"/>
<path d="M68.75 48.8748V21.2498C68.75 21.0325 68.6935 20.819 68.5858 20.6303C68.4782 20.4416 68.3233 20.2841 68.1362 20.1736L40.6362 3.92355C40.4436 3.80962 40.2238 3.74951 40 3.74951C39.7762 3.74951 39.5564 3.80962 39.3637 3.92355L11.8638 20.1736C11.8375 20.1886 11.8188 20.2111 11.7938 20.2286C11.7688 20.2461 11.745 20.2661 11.72 20.2861C11.6115 20.3715 11.5181 20.4746 11.4437 20.5911C11.4437 20.5998 11.4287 20.6048 11.4237 20.6136V20.6223C11.3533 20.7493 11.3055 20.8876 11.2825 21.0311C11.2825 21.0686 11.2712 21.1036 11.2675 21.1411C11.2637 21.1786 11.25 21.2123 11.25 21.2498V53.7498C11.2499 53.9671 11.3065 54.1806 11.4142 54.3693C11.5218 54.558 11.6767 54.7155 11.8638 54.826L39.3637 71.076C39.3967 71.092 39.4305 71.1062 39.465 71.1185C39.4991 71.1356 39.5342 71.1506 39.57 71.1635C39.7062 71.2205 39.8524 71.2498 40 71.2498C40.1476 71.2498 40.2938 71.2205 40.43 71.1635C40.4663 71.1506 40.5017 71.1356 40.5363 71.1185C40.5688 71.1035 40.6037 71.0948 40.6362 71.076L48.1 66.6648C48.797 69.0794 50.0898 71.2801 51.8595 73.0645C53.6293 74.849 55.8191 76.1599 58.2279 76.877C60.6366 77.594 63.187 77.694 65.6445 77.1679C68.102 76.6417 70.3878 75.5063 72.2919 73.866C74.1959 72.2256 75.6571 70.133 76.5411 67.7804C77.4251 65.4278 77.7036 62.8907 77.351 60.4024C76.9983 57.9141 76.0258 55.5543 74.5229 53.54C73.02 51.5257 71.0349 49.9215 68.75 48.8748ZM40 6.45105L46.5 10.2923L36.8625 15.9873C36.5769 16.156 36.37 16.4313 36.2874 16.7526C36.2048 17.0739 36.2531 17.4148 36.4219 17.7004C36.5906 17.986 36.8659 18.1929 37.1872 18.2755C37.5085 18.3582 37.8494 18.3098 38.135 18.1411L48.9587 11.7498L55.4588 15.5911L30.4163 30.3848L23.9162 26.5436L34.3875 20.3561C34.6731 20.1873 34.88 19.912 34.9626 19.5907C35.0452 19.2695 34.9969 18.9285 34.8281 18.6429C34.6594 18.3573 34.3841 18.1504 34.0628 18.0678C33.7415 17.9852 33.4006 18.0336 33.115 18.2023L21.4587 25.0911L14.9575 21.2498L40 6.45105ZM22.7087 28.7348L29.1663 32.5511V40.8973L22.7087 37.0811V28.7348ZM41.25 67.8098V63.7498C41.25 63.4183 41.1183 63.1003 40.8839 62.8659C40.6495 62.6315 40.3315 62.4998 40 62.4998C39.6685 62.4998 39.3505 62.6315 39.1161 62.8659C38.8817 63.1003 38.75 63.4183 38.75 63.7498V67.8098L13.75 53.0373V23.4411L20.2087 27.2573V37.7935C20.2085 38.011 20.265 38.2248 20.3726 38.4138C20.4802 38.6027 20.6353 38.7604 20.8225 38.871L29.78 44.1648C29.9729 44.2782 30.1925 44.3382 30.4163 44.3386C30.7478 44.3386 31.0657 44.2069 31.3001 43.9724C31.5346 43.738 31.6663 43.4201 31.6663 43.0886V34.0273L38.75 38.2135V58.7498C38.75 59.0813 38.8817 59.3993 39.1161 59.6337C39.3505 59.8681 39.6685 59.9998 40 59.9998C40.3315 59.9998 40.6495 59.8681 40.8839 59.6337C41.1183 59.3993 41.25 59.0813 41.25 58.7498V38.2135L63.905 24.826C64.1904 24.6573 64.3972 24.3821 64.4797 24.0609C64.5622 23.7398 64.5137 23.399 64.345 23.1136C64.2614 22.9722 64.1509 22.8487 64.0196 22.7501C63.8883 22.6515 63.7389 22.5797 63.5799 22.5389C63.2587 22.4564 62.9179 22.5048 62.6325 22.6736L40 36.0485L32.875 31.8373L57.9175 17.0386L66.25 21.9623V47.9998C64.0345 47.4155 61.7144 47.3485 59.4689 47.8042C57.2234 48.2598 55.1129 49.2258 53.3004 50.6275C51.4879 52.0291 50.0221 53.8289 49.0163 55.8875C48.0105 57.9462 47.4917 60.2086 47.5 62.4998C47.5003 63.023 47.5279 63.5457 47.5825 64.066L41.25 67.8098ZM62.5 74.9998C60.0277 74.9998 57.611 74.2667 55.5554 72.8932C53.4998 71.5197 51.8976 69.5674 50.9515 67.2833C50.0054 64.9993 49.7579 62.4859 50.2402 60.0612C50.7225 57.6364 51.913 55.4091 53.6612 53.661C55.4093 51.9128 57.6366 50.7223 60.0614 50.24C62.4861 49.7577 64.9995 50.0052 67.2835 50.9513C69.5676 51.8974 71.5199 53.4996 72.8934 55.5552C74.2669 57.6108 75 60.0275 75 62.4998C74.9964 65.8139 73.6782 68.9912 71.3348 71.3346C68.9914 73.678 65.8141 74.9962 62.5 74.9998Z" fill="white"/>
<path d="M59.6337 62.866C59.398 62.6383 59.0822 62.5123 58.7545 62.5152C58.4267 62.518 58.1132 62.6495 57.8815 62.8813C57.6497 63.113 57.5182 63.4265 57.5154 63.7543C57.5125 64.082 57.6385 64.3978 57.8662 64.6335L59.7412 66.5085C59.9757 66.7429 60.2935 66.8745 60.625 66.8745C60.9564 66.8745 61.2743 66.7429 61.5087 66.5085L67.1337 60.8835C67.3614 60.6478 67.4874 60.332 67.4846 60.0043C67.4817 59.6765 67.3503 59.363 67.1185 59.1313C66.8868 58.8995 66.5732 58.768 66.2455 58.7652C65.9178 58.7623 65.602 58.8883 65.3662 59.116L60.625 63.8573L59.6337 62.866Z" fill="white"/>
</svg>
