<svg width="70" height="70" fill="none" xmlns="http://www.w3.org/2000/svg"><path d="M66.152 34.475c0-.085-.03-.16-.049-.24-.006-.029.004-.06-.005-.087l-1.537-4.719a1.056 1.056 0 00-1.003-.73H60.49V9.312c0-.033-.016-.06-.019-.092-.004-.044-.016-.082-.025-.125a1.03 1.03 0 00-.18-.404c-.015-.019-.014-.045-.029-.063L56.112 3.78a1.055 1.055 0 00-.805-.374H15.22c-.31 0-.603.137-.805.371l-4.126 4.848c-.018.021-.017.051-.033.073a1.029 1.029 0 00-.173.388c-.011.048-.024.09-.028.138-.003.03-.018.056-.018.086V28.7H6.222c-.475 0-.89.317-1.017.773l-1.318 4.719c-.01.035.003.072-.003.108-.01.06-.036.113-.036.175 0 .046.02.085.026.13.004.03-.009.06-.002.09l6.216 29.13a2.772 2.772 0 002.768 2.769h44.862c1.526 0 2.77-1.243 2.749-2.568l5.664-29.35c.005-.025-.008-.05-.005-.075.006-.043.026-.081.026-.126zM12.148 10.368h46.227v4.063H12.148v-4.063zm3.558-4.848h39.112l2.33 2.733h-43.77l2.328-2.733zm-3.558 11.026h46.227V28.7h-.328c-.542-5.573-5.198-9.96-10.91-9.96-2.129 0-4.153.631-5.927 1.77a10.928 10.928 0 00-5.947-1.77c-2.195 0-4.23.662-5.95 1.772-1.771-1.142-3.795-1.772-5.925-1.772-5.712 0-10.368 4.387-10.909 9.96h-.331V16.546zM42.461 28.7c-.518-3.524-3.532-6.248-7.198-6.248-3.666 0-6.68 2.724-7.199 6.248h-1.598c.53-4.407 4.25-7.846 8.797-7.846 4.547 0 8.267 3.44 8.797 7.846h-1.6zm-2.115 0H30.18a5.202 5.202 0 015.084-4.133 5.2 5.2 0 015.083 4.133zm-22.042 0a5.202 5.202 0 015.085-4.133c.69 0 1.348.181 1.977.442a10.882 10.882 0 00-1.012 3.69h-6.05zm-3.713 0c.53-4.407 4.25-7.846 8.797-7.846 1.478 0 2.898.361 4.177 1.044-.392.384-.732.816-1.064 1.254a7.282 7.282 0 00-3.113-.7c-3.666 0-6.68 2.724-7.198 6.248h-1.6zm31.581 0a10.884 10.884 0 00-1.012-3.692c.628-.26 1.286-.441 1.978-.441 2.5 0 4.594 1.776 5.084 4.133h-6.05zm8.165 0c-.518-3.524-3.533-6.248-7.2-6.248a7.283 7.283 0 00-3.113.7c-.331-.439-.67-.87-1.062-1.254a8.827 8.827 0 014.176-1.044c4.547 0 8.266 3.439 8.796 7.846h-1.597zm8.455 2.114l.849 2.604H6.296l.728-2.604h55.768zm-4.42 33.01a.655.655 0 01-.654.656H12.856c-.363 0-.656-.294-.68-.874L6.209 35.532h57.608l-5.443 28.293z" fill="#28285A"/><path d="M43.216 39.392a1.054 1.054 0 00-1.365.606l-.922 2.385H28.894l-.921-2.385a1.052 1.052 0 00-1.366-.606c-.544.21-.814.82-.604 1.364l1.182 3.063c.157.408.548.678.985.678h13.483c.438 0 .828-.27.985-.678l1.183-3.063a1.054 1.054 0 00-.605-1.364zM54.132 11.5h-2.498a1.058 1.058 0 000 2.114h2.498a1.058 1.058 0 000-2.114zm-6.624 0a1.058 1.058 0 000 2.114h.139c.583 0 .986-.475.986-1.057 0-.583-.543-1.057-1.125-1.057zm-3.194 0a1.058 1.058 0 000 2.114h.155c.583 0 .979-.475.979-1.057 0-.583-.55-1.057-1.134-1.057z" fill="#28285A"/></svg>