<svg width="70" height="70" fill="none" xmlns="http://www.w3.org/2000/svg"><path d="M67.813 1.094h-14.22A1.094 1.094 0 0052.5 2.187V5.47h-2.188a1.093 1.093 0 00-1.036.748l-1.94 5.814h-2.492v-1.094a1.094 1.094 0 00-1.094-1.093H15.312a1.094 1.094 0 00-1.093 1.094v21.874a3.282 3.282 0 003.281 3.282h28.438a3.282 3.282 0 003.28-3.282v-19.51l1.883-5.646h16.712a1.094 1.094 0 001.093-1.093V2.188a1.094 1.094 0 00-1.094-1.094zM42.656 33.906H17.5a1.094 1.094 0 01-1.094-1.093V12.03h26.25v21.875zm3.282 0h-1.094V14.22h2.187v18.593a1.094 1.094 0 01-1.093 1.094zM66.718 5.47h-12.03V3.28h12.03v2.19z" fill="#28285A"/><path d="M20.781 31.719h2.188V29.53h5.468v2.188h2.188V29.53h5.469v2.188h2.187V29.53h2.188v-2.187H38.28v-3.282h2.188v-2.187H38.28v-3.281h2.188v-2.188H38.28V14.22h-2.187v2.187h-5.469V14.22h-2.188v2.187H22.97V14.22h-2.19v2.187h-2.187v2.188h2.187v3.281h-2.187v2.188h2.187v3.28h-2.187v2.188h2.187v2.188zm15.313-4.375h-5.469v-3.282h5.469v3.282zm0-8.75v3.281h-5.469v-3.281h5.469zm-13.125 0h5.468v3.281H22.97v-3.281zm0 5.468h5.468v3.282H22.97v-3.282zM61.25 43.75h-3.281v-2.188a1.094 1.094 0 00-1.094-1.093H12.772l-4.1-10.25a1.094 1.094 0 00-1.016-.688H2.188a1.094 1.094 0 00-1.094 1.094v32.813a1.094 1.094 0 001.093 1.093h4.376v3.281a1.094 1.094 0 001.093 1.094h5.469a1.094 1.094 0 001.094-1.094v-3.28h31.718v3.28a1.093 1.093 0 001.094 1.094H52.5a1.094 1.094 0 001.094-1.094v-3.28h3.281a1.094 1.094 0 001.094-1.094V61.25h3.281a1.093 1.093 0 001.094-1.094v-4.375a1.094 1.094 0 00-1.094-1.093h-3.281V52.5h3.281a1.093 1.093 0 001.094-1.094v-6.562a1.094 1.094 0 00-1.094-1.094zM6.916 31.719l3.5 8.75H3.28v-8.75h3.635zm5.115 35H8.75V64.53h3.281v2.188zm39.375 0h-3.281V64.53h3.281v2.188zm4.375-4.375h-52.5v-2.188h6.563V57.97H3.28v-2.19h6.563v-2.187H3.28v-2.188h6.563V49.22H3.28v-2.19h2.19v-2.187H3.28v-2.188h52.5v19.688zm4.375-5.469v2.188H57.97v-2.188h2.187zm0-6.563H57.97v-4.374h2.187v4.374z" fill="#28285A"/><path d="M53.594 44.844H7.656v2.187h45.938v-2.187zm-17.5 5.469H25.156a1.093 1.093 0 00-1.093 1.093v4.375a1.093 1.093 0 001.093 1.094h10.938a1.093 1.093 0 001.093-1.094v-4.375a1.093 1.093 0 00-1.093-1.093zM35 54.687h-8.75V52.5H35v2.188z" fill="#28285A"/></svg>