<svg width="70" height="70" fill="none" xmlns="http://www.w3.org/2000/svg"><path d="M5.469 61.25h4.375v3.281c0 .604.489 1.094 1.094 1.094h8.75c.604 0 1.093-.49 1.093-1.094V61.25H49.22v3.281c0 .604.489 1.094 1.093 1.094h8.75c.605 0 1.094-.49 1.094-1.094V61.25h4.375a3.285 3.285 0 003.281-3.281V12.03a3.285 3.285 0 00-3.28-3.281H59.74l-1.886-3.77a1.094 1.094 0 00-.978-.605H41.562c-.414 0-.792.234-.978.605L38.7 8.75h-7.4l-1.885-3.77a1.094 1.094 0 00-.979-.605h-15.31c-.414 0-.793.234-.978.605L10.26 8.75H5.47a3.285 3.285 0 00-3.282 3.281V57.97a3.285 3.285 0 003.282 3.28zm13.125 2.188H12.03V61.25h6.563v2.188zm39.375 0h-6.563V61.25h6.563v2.188zm6.562-4.376H5.468c-.603 0-1.093-.49-1.093-1.093V24.062h61.25V57.97c0 .603-.49 1.093-1.094 1.093zM42.24 6.563H56.2l1.094 2.188H41.145l1.094-2.188zm-28.438 0h13.96l1.094 2.188H12.707l1.094-2.188zM5.47 10.938h59.06c.604 0 1.094.491 1.094 1.094v9.844H4.375v-9.844c0-.603.49-1.094 1.094-1.094z" fill="#28285A"/><path d="M35 20.781a4.346 4.346 0 003.093-1.281 4.344 4.344 0 001.282-3.094 4.344 4.344 0 00-1.282-3.093A4.346 4.346 0 0035 12.031a4.346 4.346 0 00-3.093 1.282 4.344 4.344 0 00-1.282 3.093c0 1.169.455 2.267 1.282 3.094A4.346 4.346 0 0035 20.78zm1.547-2.828c-.548.548-1.363.724-2.093.546l2.652-2.652c.048.18.081.367.081.56 0 .584-.227 1.133-.64 1.546zm-3.094-3.093A2.172 2.172 0 0135 14.219c.193 0 .378.033.56.081l-2.666 2.666a2.184 2.184 0 01-.081-.56c0-.584.227-1.133.64-1.546zm-12.672 5.921a4.38 4.38 0 004.375-4.375 4.38 4.38 0 00-4.375-4.375 4.38 4.38 0 00-4.375 4.375 4.38 4.38 0 004.375 4.375zm0-2.187a2.18 2.18 0 01-1.883-1.094h3.767a2.18 2.18 0 01-1.884 1.094zm0-4.375a2.18 2.18 0 011.884 1.094h-3.767a2.18 2.18 0 011.883-1.094zm28.438 6.562a4.345 4.345 0 003.093-1.281 4.344 4.344 0 001.282-3.094 4.344 4.344 0 00-1.282-3.093 4.345 4.345 0 00-3.093-1.282 4.345 4.345 0 00-3.093 1.282 4.344 4.344 0 00-1.282 3.093c0 1.169.455 2.267 1.282 3.094a4.345 4.345 0 003.093 1.281zm-1.547-2.828a2.173 2.173 0 01-.64-1.547c0-.192.033-.378.08-.56l2.653 2.653c-.73.178-1.545.002-2.093-.546zm3.093-3.093c.414.413.641.962.641 1.546 0 .193-.033.379-.081.56L48.659 14.3c.181-.048.367-.081.56-.081.584 0 1.133.227 1.546.64zM61.25 27.344H8.75c-.605 0-1.094.49-1.094 1.093v26.25c0 .605.49 1.094 1.094 1.094h52.5c.605 0 1.094-.49 1.094-1.093v-26.25c0-.604-.49-1.094-1.094-1.094zM41.562 29.53v2.188H28.438V29.53h13.125zm-15.312 0v3.282c0 .603.49 1.093 1.094 1.093h15.312c.605 0 1.094-.49 1.094-1.093V29.53h16.406v13.125H9.844V29.531H26.25zM9.844 53.594v-8.75h50.312v8.75H9.844z" fill="#28285A"/></svg>