<svg width="70" height="70" fill="none" xmlns="http://www.w3.org/2000/svg"><path d="M22.374 20.761h25.252a.854.854 0 00.853-.854V5.78a.854.854 0 00-.853-.853H22.374a.853.853 0 00-.853.853v14.128a.854.854 0 00.853.854zm.854-14.128h23.544v12.42H23.228V6.634zM48.48 60.046V25.14a.854.854 0 00-.854-.854H22.374a.853.853 0 00-.853.854v34.906a.854.854 0 00.853.854h25.252a.854.854 0 00.853-.854zm-1.708-.853H23.228v-33.2h23.544v33.2z" fill="#28285A"/><path d="M26.028 40.976h.145l4.559-.854 2.433 1.297-2.39 1.272-4.61-.853a.867.867 0 00-.308 1.707l2.493.461-1.28.683a.853.853 0 00-.042 1.485.854.854 0 00.844.017l1.23-.657-1 2.211a.855.855 0 00.427 1.135c.11.048.23.07.35.069a.853.853 0 00.777-.495l1.93-4.218 2.56-1.39v2.893l-2.91 3.67a.854.854 0 101.34 1.06l1.57-1.981v1.451a.854.854 0 001.708 0v-1.4l1.477 1.92a.852.852 0 00.682.334.854.854 0 00.675-1.375l-2.834-3.67v-2.852l2.56 1.34 1.913 4.226a.854.854 0 00.777.495.84.84 0 00.35-.068.854.854 0 00.426-1.135l-.998-2.211 1.229.657a.853.853 0 001.22-1 .854.854 0 00-.418-.503l-1.28-.682 2.493-.479a.867.867 0 10-.308-1.707l-4.61.854-2.39-1.272 2.45-1.29 4.576.778h.145a.857.857 0 10.137-1.708l-2.39-.4 1.237-.658a.853.853 0 00.453-.76.855.855 0 00-1.272-.666l-1.28.683 1.015-2.313a.856.856 0 10-1.57-.683l-1.87 4.268-2.561 1.366v-2.97l2.834-3.672a.855.855 0 00-1.357-1.04l-1.477 1.92v-1.4a.854.854 0 10-1.707 0v1.451l-1.571-1.98a.854.854 0 00-1.34 1.058l2.91 3.67v2.989l-2.595-1.409-1.87-4.268a.857.857 0 00-1.57.683l1.016 2.313-1.28-.683a.855.855 0 10-.803 1.511l1.238.657-2.39.402a.856.856 0 10.136 1.707l-.034.009z" fill="#28285A"/><path d="M45.577 70h4.089a.854.854 0 00.854-.854v-3.414h1.553a.854.854 0 00.854-.854V3.518A3.525 3.525 0 0049.41 0H20.59a3.526 3.526 0 00-3.517 3.517v61.361a.854.854 0 00.854.854h1.553v3.414a.854.854 0 00.854.854h4.09a.854.854 0 00.853-.854v-3.414h19.446v3.414a.854.854 0 00.854.854zm3.235-1.707h-2.381v-2.561h2.381v2.56zm-25.242 0h-2.382v-2.561h2.382v2.56zm.853-4.269h-5.642V3.517a1.81 1.81 0 011.81-1.81H49.41a1.81 1.81 0 011.81 1.81v60.507H24.422z" fill="#28285A"/></svg>