<svg width="70" height="70" fill="none" xmlns="http://www.w3.org/2000/svg"><path d="M5.742 18.047H9.57a3.587 3.587 0 013.555 3.588v35.78a4.491 4.491 0 102.188-.01v-9.829a7.467 7.467 0 005.332 2.19h39.101v7.648a4.492 4.492 0 102.188-.01v-29.48a1.123 1.123 0 00-1.094-1.127H47.305v-2.463a5.515 5.515 0 002.686-1.45 5.289 5.289 0 001.552-3.738v-4.444c0-.604-.536-1.03-1.14-1.03h-8.398c-.604 0-1.126.426-1.126 1.03v4.444a5.277 5.277 0 004.238 5.188v2.463h-8.886v-4.92a6.978 6.978 0 00-.753-3.195l-2.756-5.39a1.832 1.832 0 01-.183-.845v-6.87a1.898 1.898 0 00-1.849-1.886h-3.366a1.938 1.938 0 00-1.894 1.886v6.908c.01.276-.041.551-.152.805l-2.61 5.47a6.973 6.973 0 00-.656 3.04v4.997h-6.7v-5.162A5.777 5.777 0 009.57 15.86H5.742a1.094 1.094 0 100 2.188zm10.801 43.715a2.302 2.302 0 11-4.603 0 2.302 2.302 0 014.603 0zm26.523-42.616v-3.287h6.29v3.295a3.102 3.102 0 01-.916 2.189 3.151 3.151 0 01-5.374-2.197zM20.644 47.578a5.309 5.309 0 01-5.331-5.298v-.718h44.433v6.016H20.644zm42.52 14.184a2.302 2.302 0 11-4.603 0 2.302 2.302 0 014.603 0zM30.352 5.88v6.152h-2.735V5.88h2.735zm-5.698 13.818l2.621-5.478h3.485c.007 0 .013.045.02.058l2.755 5.4c.342.682.516 1.436.508 2.2v.271h-9.844V21.8a4.862 4.862 0 01.454-2.102zm-.455 4.639h9.844v2.46h-9.844v-2.46zm35.547 4.648v10.391H15.312v-10.39h44.434z" fill="#28285A"/></svg>