<svg width="70" height="70" fill="none" xmlns="http://www.w3.org/2000/svg"><path d="M66.547 61.777a3.397 3.397 0 013.38 3.385c0 1.858-1.525 3.386-3.38 3.386H5.636a3.398 3.398 0 01-3.38-3.386 3.397 3.397 0 013.38-3.385h60.912zm0 2.268H5.636c-.645 0-1.116.472-1.116 1.117 0 .646.472 1.134 1.116 1.134h60.912a1.11 1.11 0 001.132-1.134c0-.645-.489-1.117-1.133-1.117zM7.9 14.329a3.397 3.397 0 00-3.38 3.385v9.04c0 1.857 1.525 3.385 3.38 3.385h22.563c1.855 0 3.38-1.528 3.38-3.386v-9.039a3.397 3.397 0 00-3.38-3.385H7.9zm0 2.268h22.563c.645 0 1.116.472 1.116 1.117v9.04c0 .645-.471 1.133-1.116 1.133H7.9a1.11 1.11 0 01-1.132-1.134v-9.039c0-.645.488-1.117 1.132-1.117z" fill="#28285A"/><path d="M29.33 29.022V62.91h2.249V29.02H29.33zm-22.562 0V62.91h2.265V29.02H6.768zM19.174 3.039c-6.84 0-12.406 5.575-12.406 12.424h2.265c0-5.628 4.521-10.173 10.14-10.173 5.62 0 10.158 4.545 10.158 10.173h2.248c0-6.85-5.567-12.424-12.405-12.424z" fill="#28285A"/><path d="M19.157.77a1.127 1.127 0 00-1.116 1.15v2.235a1.135 1.135 0 001.567 1.054 1.13 1.13 0 00.698-1.054V1.92A1.13 1.13 0 0019.157.77zm-.117 27.134a1.128 1.128 0 00-.998 1.151v25.95a1.136 1.136 0 001.132 1.142 1.131 1.131 0 001.132-1.141v-25.95a1.13 1.13 0 00-1.265-1.152zm13.105-1.151v2.269h6.211v-2.269h-6.21zm-2.248 7.906v2.268h8.46v-2.268h-8.46z" fill="#28285A"/><path d="M40.604 26.186c-3.101 0-5.645 2.548-5.645 5.654s2.544 5.654 5.645 5.654c3.101 0 5.645-2.548 5.645-5.654s-2.544-5.654-5.645-5.654zm0 2.269c1.882 0 3.38 1.5 3.38 3.385a3.364 3.364 0 01-3.38 3.386c-1.882 0-3.38-1.5-3.38-3.386a3.363 3.363 0 013.38-3.385z" fill="#28285A"/><path d="M45 28.455a1.127 1.127 0 00-.993 1.18 1.131 1.131 0 001.11 1.071H56.39a1.12 1.12 0 011.132 1.134 1.12 1.12 0 01-1.132 1.135H45.117a1.126 1.126 0 00-1.223 1.125 1.13 1.13 0 001.223 1.126H56.39c1.855 0 3.397-1.527 3.397-3.386 0-1.858-1.542-3.385-3.397-3.385H45.117a1.138 1.138 0 00-.117 0z" fill="#28285A"/><path d="M49.463 32.958l-1.932 1.167 3.38 5.637a1.13 1.13 0 00.966.55h3.397a1.128 1.128 0 001.116-1.133v-5.637h-2.248v4.52h-1.615l-3.064-5.104zm2.414-8.456c-2.478 0-4.496 2.037-4.496 4.52h2.248c0-1.262.99-2.269 2.248-2.269a2.256 2.256 0 012.265 2.269h2.248c0-2.483-2.034-4.52-4.513-4.52zM40.42 11.044a3.404 3.404 0 00-1.238 4.624l3.38 5.864c.928 1.61 3.02 2.183 4.627 1.254l.98-.567c1.607-.929 2.157-3.03 1.23-4.639l-3.381-5.864a3.393 3.393 0 00-4.618-1.24l-.98.568zm1.124 1.95l.98-.567c.558-.323 1.21-.136 1.532.423l3.38 5.864c.323.559.159 1.218-.399 1.541l-.98.567a1.108 1.108 0 01-1.547-.415l-3.38-5.864a1.112 1.112 0 01.414-1.55z" fill="#28285A"/><path d="M46.1 21.45l-1.966 1.134 3.397 5.87 1.949-1.134-3.38-5.87zm3.413-1.968l-1.948 1.117 3.38 5.87 1.948-1.117-3.38-5.87zm17.034 27.602l-4.512.017v2.251h4.496l.017 5.087c0 1.033-.667 1.684-1.699 1.684h-2.814v2.268h2.814a3.96 3.96 0 003.947-3.952v-5.087c0-1.177-1.053-2.269-2.248-2.268z" fill="#28285A"/><path d="M45.117 43.698a1.126 1.126 0 00-1.133 1.134v13.559c0 3.11 2.54 5.637 5.645 5.637v-2.251a3.349 3.349 0 01-3.38-3.386V45.966h14.653v12.425a3.349 3.349 0 01-3.38 3.386v2.251c3.105 0 5.645-2.528 5.645-5.637V44.832a1.133 1.133 0 00-.698-1.049 1.126 1.126 0 00-.434-.085H45.117z" fill="#28285A"/><path d="M53.56 48.785a1.126 1.126 0 00-1.116 1.15v7.872a1.135 1.135 0 001.132 1.135 1.132 1.132 0 001.132-1.135v-7.871a1.133 1.133 0 00-.706-1.07 1.126 1.126 0 00-.443-.081zm-3.947 0a1.126 1.126 0 00-1.116 1.15v7.872a1.135 1.135 0 001.133 1.135 1.132 1.132 0 001.132-1.135v-7.871a1.133 1.133 0 00-.706-1.07 1.126 1.126 0 00-.443-.081zm7.893 0a1.126 1.126 0 00-1.116 1.15v7.872a1.135 1.135 0 001.566 1.048 1.132 1.132 0 00.699-1.047v-7.872a1.13 1.13 0 00-1.15-1.151zm7.818-39.529a1.127 1.127 0 00-.994 1.18 1.13 1.13 0 001.11 1.072h1.1a1.126 1.126 0 001.222-1.126 1.13 1.13 0 00-1.222-1.126h-1.1a1.126 1.126 0 00-.116 0zm-5.645 0a1.127 1.127 0 00-.994 1.18 1.13 1.13 0 001.11 1.072h1.1a1.126 1.126 0 001.222-1.126 1.133 1.133 0 00-.762-1.07 1.126 1.126 0 00-.46-.056h-1.1a1.126 1.126 0 00-.116 0zm-3.282-5.092a1.129 1.129 0 11-2.258.001 1.129 1.129 0 012.258 0zM65.42 19.98a1.133 1.133 0 01-.697 1.043 1.126 1.126 0 01-1.56-1.043 1.131 1.131 0 011.129-1.13 1.126 1.126 0 011.128 1.13zm-1.136-7.439a1.131 1.131 0 00-1.18-.995 1.128 1.128 0 00-1.068 1.112v1.101a1.132 1.132 0 001.124 1.224 1.126 1.126 0 001.124-1.224v-1.1a1.142 1.142 0 000-.118zm0-5.654a1.13 1.13 0 00-1.18-.995 1.127 1.127 0 00-1.068 1.112v1.101A1.132 1.132 0 0063.16 9.33a1.126 1.126 0 001.067-.764c.05-.148.07-.305.057-.46V7.003a1.141 1.141 0 000-.117zM38.35 50.481a1.133 1.133 0 01-.696 1.044 1.126 1.126 0 01-1.56-1.044 1.131 1.131 0 011.129-1.13 1.126 1.126 0 011.127 1.13zm29.325-21.464a1.13 1.13 0 01-1.56 1.044 1.128 1.128 0 01-.365-1.843 1.13 1.13 0 011.595 0 1.13 1.13 0 01.33.8z" fill="#28285A"/></svg>