<svg width="70" height="70" fill="none" xmlns="http://www.w3.org/2000/svg"><path d="M62.344 4.375H7.656a5.475 5.475 0 00-5.468 5.469v50.312a5.475 5.475 0 005.468 5.469h54.688a5.475 5.475 0 005.468-5.469V9.844a5.475 5.475 0 00-5.468-5.469zm3.281 55.781a3.28 3.28 0 01-3.281 3.282H7.656a3.281 3.281 0 01-3.281-3.282V9.844a3.281 3.281 0 013.281-3.281h54.688a3.281 3.281 0 013.281 3.28v50.313z" fill="#28285A"/><path d="M47.031 9.844H31.72a1.094 1.094 0 00-1.094 1.094v19.687a1.093 1.093 0 001.094 1.094h15.31a1.094 1.094 0 001.094-1.094V10.937a1.093 1.093 0 00-1.094-1.093zM45.938 29.53H32.812v-17.5h13.126v17.5zm1.093 4.376H7.656A1.094 1.094 0 006.563 35v24.063a1.094 1.094 0 001.093 1.093h39.375a1.094 1.094 0 001.094-1.093V35a1.093 1.093 0 00-1.094-1.094zM45.938 57.97H8.75V36.094h37.188v21.875zm10.937-44.845c-3.62 0-6.563 3.925-6.563 8.75a9.555 9.555 0 003.172 7.498l-.899 25.198a3.28 3.28 0 003.282 3.398h2.027a3.284 3.284 0 003.282-3.398l-.91-25.198a9.556 9.556 0 003.172-7.498c0-4.825-2.944-8.75-6.563-8.75zm1.688 14.783a1.094 1.094 0 00-.502.96l.92 25.78a1.094 1.094 0 01-1.093 1.133H55.86a1.093 1.093 0 01-1.094-1.133l.921-25.78a1.093 1.093 0 00-.502-.96c-1.632-1.051-2.686-3.419-2.686-6.033 0-3.557 2.004-6.563 4.375-6.563s4.375 3.006 4.375 6.563c0 2.614-1.054 4.982-2.687 6.033z" fill="#28285A"/><path d="M37.188 27.344a1.083 1.083 0 10-.777-.317c.21.2.487.313.776.317zm2.187-6.563a3.282 3.282 0 100-6.563 3.282 3.282 0 000 6.563zm0-4.375a1.094 1.094 0 110 2.188 1.094 1.094 0 010-2.188zm1.411 6.88a1.093 1.093 0 00.776 1.87 1.13 1.13 0 00.777-.317l.131-.164a.823.823 0 00.099-.197.694.694 0 00.065-.197 1.095 1.095 0 00-1.848-.995zM13.884 42.35c.349-.32.533-.136.656-.014a1.094 1.094 0 001.547-1.547 2.565 2.565 0 00-3.734 0 1.082 1.082 0 00-.007 1.523 1.104 1.104 0 001.538.038zm17.5 5.469c.349-.32.533-.135.656-.015a1.094 1.094 0 001.547-1.546 2.566 2.566 0 00-3.734 0 1.082 1.082 0 00-.007 1.522 1.105 1.105 0 001.538.039zM19.353 51.1c.348-.32.532-.136.656-.014a1.094 1.094 0 001.547-1.547 2.566 2.566 0 00-3.735 0 1.083 1.083 0 00-.006 1.523 1.105 1.105 0 001.538.038zm6.562-9.844c.35-.32.533-.135.657-.014a1.094 1.094 0 001.546-1.547 2.565 2.565 0 00-3.734 0 1.083 1.083 0 00-.006 1.523 1.105 1.105 0 001.537.038zm-.438 11.564a1.082 1.082 0 00-.007 1.523 1.104 1.104 0 001.539.038c.349-.32.533-.135.656-.014a1.094 1.094 0 001.547-1.546 2.566 2.566 0 00-3.735 0zm13.563-9.984c.35-.32.533-.136.657-.015a1.094 1.094 0 001.546-1.546 2.564 2.564 0 00-3.734 0 1.083 1.083 0 00-.007 1.522 1.104 1.104 0 001.538.039zm-2.187 9.844c.349-.32.532-.136.656-.015a1.094 1.094 0 001.547-1.546 2.565 2.565 0 00-3.734 0 1.083 1.083 0 00-.007 1.522 1.103 1.103 0 001.538.038zM17.5 31.719A10.937 10.937 0 106.562 20.78 10.95 10.95 0 0017.5 31.72zm0-19.688a8.75 8.75 0 11-8.75 8.75 8.76 8.76 0 018.75-8.75z" fill="#28285A"/><path d="M17.5 27.344a1.094 1.094 0 100-2.188 4.212 4.212 0 01-4.375-4.375 1.094 1.094 0 00-2.188 0 6.328 6.328 0 006.563 6.563z" fill="#28285A"/></svg>