<svg width="70" height="70" fill="none" xmlns="http://www.w3.org/2000/svg"><path d="M64.531 10.938h-1.094V9.405c0-.328-.153-.645-.415-.853l-2.188-1.75a1.107 1.107 0 00-1.542.175c-.372.47-.295 1.16.175 1.542L61.25 9.93v1.007H44.844V9.93l1.783-1.422c.47-.371.546-1.06.175-1.542a1.106 1.106 0 00-1.543-.175l-2.187 1.75a1.132 1.132 0 00-.416.864v1.531H27.344v-1.53c0-.329-.153-.646-.416-.854l-2.187-1.75a1.107 1.107 0 00-1.543.175c-.371.47-.295 1.16.175 1.542l1.783 1.411v1.007H8.75V9.93l1.783-1.422c.47-.371.547-1.06.175-1.542a1.106 1.106 0 00-1.542-.175l-2.188 1.75a1.132 1.132 0 00-.415.864v1.531H5.468a4.374 4.374 0 00-4.375 4.376v43.75a4.374 4.374 0 004.375 4.374h1.51l-1.4 2.79a1.087 1.087 0 00.491 1.465 1.101 1.101 0 001.477-.481l1.881-3.773h52.238l1.88 3.773a1.101 1.101 0 001.477.481c.536-.273.755-.93.493-1.465l-1.4-2.79h.415a4.374 4.374 0 004.375-4.374v-43.75a4.374 4.374 0 00-4.375-4.376zm2.188 48.124a2.194 2.194 0 01-2.188 2.188H5.47a2.194 2.194 0 01-2.188-2.188v-43.75c0-1.203.985-2.187 2.188-2.187h59.06c1.203 0 2.188.984 2.188 2.188v43.75z" fill="#28285A"/><path d="M61.25 33.906H8.75c-.602 0-1.094.492-1.094 1.094v17.5c0 .602.492 1.094 1.094 1.094h52.5c.602 0 1.094-.492 1.094-1.094V35c0-.602-.492-1.094-1.094-1.094zm-1.094 17.5H9.844V36.094h50.312v15.312zM12.031 28.438a4.374 4.374 0 004.375-4.375 4.374 4.374 0 00-4.375-4.375 4.374 4.374 0 00-4.375 4.375 4.374 4.374 0 004.375 4.375zm0-6.563c1.203 0 2.188.984 2.188 2.188a2.194 2.194 0 01-2.188 2.187 2.194 2.194 0 01-2.187-2.188c0-1.203.984-2.187 2.187-2.187zm15.313 6.563a4.374 4.374 0 004.375-4.375 4.374 4.374 0 00-4.375-4.375 4.374 4.374 0 00-4.375 4.375 4.374 4.374 0 004.375 4.375zm0-6.563c1.203 0 2.187.984 2.187 2.188a2.194 2.194 0 01-2.187 2.187 2.194 2.194 0 01-2.188-2.188c0-1.203.985-2.187 2.188-2.187zm15.312 6.563a4.374 4.374 0 004.375-4.375 4.374 4.374 0 00-4.375-4.375 4.374 4.374 0 00-4.375 4.375 4.374 4.374 0 004.375 4.375zm0-6.563c1.203 0 2.188.984 2.188 2.188a2.194 2.194 0 01-2.188 2.187 2.194 2.194 0 01-2.187-2.188c0-1.203.984-2.187 2.187-2.187zm15.313-2.187a4.374 4.374 0 00-4.375 4.375 4.374 4.374 0 004.375 4.375 4.374 4.374 0 004.375-4.375 4.374 4.374 0 00-4.375-4.375zm0 6.562a2.194 2.194 0 01-2.188-2.188c0-1.203.985-2.187 2.188-2.187 1.203 0 2.187.984 2.187 2.188a2.194 2.194 0 01-2.187 2.187z" fill="#28285A"/></svg>