<svg width="70" height="70" fill="none" xmlns="http://www.w3.org/2000/svg"><path d="M62.344 2.188H7.656a5.475 5.475 0 00-5.468 5.468v48.125a5.475 5.475 0 005.468 5.469H8.75v3.281a3.285 3.285 0 003.281 3.281h4.375a3.285 3.285 0 003.282-3.28V61.25h30.625v3.281a3.285 3.285 0 003.28 3.281h4.376a3.285 3.285 0 003.281-3.28V61.25h1.094a5.475 5.475 0 005.468-5.469V7.656a5.475 5.475 0 00-5.468-5.468zM4.375 7.655a3.285 3.285 0 013.281-3.281h54.688a3.285 3.285 0 013.281 3.281v7.657H4.375V7.655zM17.5 64.531c0 .603-.491 1.094-1.094 1.094h-4.375a1.096 1.096 0 01-1.094-1.094V61.25H17.5v3.281zm41.563 0c0 .603-.492 1.094-1.094 1.094h-4.375a1.096 1.096 0 01-1.094-1.094V61.25h6.563v3.281zm6.562-8.75a3.285 3.285 0 01-3.281 3.282H7.656a3.285 3.285 0 01-3.281-3.282V17.5h61.25v38.281z" fill="#28285A"/><path d="M7.656 56.875h54.688c.603 0 1.093-.49 1.093-1.094v-26.25c0-.604-.49-1.093-1.093-1.093H7.656c-.603 0-1.093.49-1.093 1.093v26.25c0 .604.49 1.094 1.093 1.094zm1.094-26.25h52.5v24.063H8.75V30.625zm1.094-6.562h50.312v2.187h2.188v-6.563h-2.188v2.188H9.844v-2.188H7.656v6.563h2.188v-2.188zm47.031-17.5a3.285 3.285 0 00-3.281 3.28 3.285 3.285 0 003.281 3.282 3.285 3.285 0 003.281-3.281 3.285 3.285 0 00-3.281-3.281zm0 4.375a1.096 1.096 0 01-1.094-1.094c0-.603.491-1.094 1.094-1.094.603 0 1.094.491 1.094 1.094 0 .602-.491 1.094-1.094 1.094zm-9.844-4.375a3.285 3.285 0 00-3.281 3.28 3.285 3.285 0 003.281 3.282 3.285 3.285 0 003.282-3.281 3.285 3.285 0 00-3.282-3.281zm0 4.375a1.096 1.096 0 01-1.093-1.094 1.095 1.095 0 012.187 0c0 .602-.491 1.094-1.094 1.094zM20.781 8.75H8.75v2.188h12.031V8.75zm17.5-2.187H25.156c-.604 0-1.093.49-1.093 1.093v4.375c0 .604.49 1.094 1.093 1.094h13.125c.604 0 1.094-.49 1.094-1.094V7.656c0-.603-.49-1.093-1.094-1.093zm-1.093 4.375H26.25V8.75h10.938v2.188z" fill="#28285A"/><path d="M49.219 47.031c0-4.222-3.435-7.656-7.657-7.656h-1.249c-.489-1.881-2.187-3.281-4.22-3.281h-2.187c-2.032 0-3.73 1.4-4.22 3.281h-1.248c-4.222 0-7.657 3.434-7.657 7.656v3.282h-7.656V52.5h43.75v-2.188h-7.656v-3.28zm-26.25 0a5.475 5.475 0 015.468-5.468h1.094v8.75H22.97V47.03zm8.75-6.562a2.19 2.19 0 012.187-2.188h2.188a2.19 2.19 0 012.187 2.188v9.843H31.72V40.47zm8.75 9.843v-8.75h1.093a5.475 5.475 0 015.47 5.47v3.28h-6.563zm-25.323-8.235c-.405-.646-1.062-1.988-.93-3.713a6.11 6.11 0 01.927-2.78l-1.849-1.168a8.285 8.285 0 00-1.26 3.782c-.179 2.347.711 4.164 1.257 5.038l1.855-1.16zm6.563-2.188c-.405-.645-1.062-1.987-.931-3.712a6.11 6.11 0 01.928-2.78l-1.849-1.169a8.287 8.287 0 00-1.26 3.783c-.18 2.347.711 4.163 1.257 5.037l1.855-1.159zM57.8 34.416l-1.85 1.168c.372.587.834 1.547.928 2.78.132 1.725-.526 3.067-.93 3.713l1.855 1.16c.545-.874 1.434-2.69 1.256-5.038a8.285 8.285 0 00-1.26-3.783zm-6.56 6.632c.546-.873 1.435-2.69 1.257-5.037a8.285 8.285 0 00-1.26-3.783l-1.849 1.169c.371.587.834 1.546.928 2.78.131 1.725-.526 3.067-.931 3.712l1.855 1.16z" fill="#28285A"/></svg>