<svg width="70" height="70" fill="none" xmlns="http://www.w3.org/2000/svg"><path d="M68.906 39.32c0-4.763-2.309-9.31-6.176-12.166a4.654 4.654 0 00-2.752-.904c-1.234 0-2.39.493-3.239 1.332-.158-.132-.303-.278-.467-.403-.607-.464-1.335-.74-2.083-.853l.482-5.304a4.238 4.238 0 00-4.216-4.616h-.285a4.238 4.238 0 00-4.215 4.617l.485 5.326c-.694.132-1.364.4-1.93.822-.197.146-.37.315-.559.47a4.35 4.35 0 00-.306-.286c.062-.364.105-.733.105-1.105 0-1.39-.433-2.718-1.236-3.828a6.505 6.505 0 001.236-3.828c0-3.745-3.169-6.78-6.944-6.55a6.535 6.535 0 00-4.352-4.115c-1.332-1.662-3.34-2.584-5.492-2.448a6.54 6.54 0 00-6.18-4.387 6.554 6.554 0 00-5.686 3.284c-2.896.098-5.4 2.142-6.117 4.927-3.387 1.263-5.698 4.54-5.698 8.195a8.701 8.701 0 003.827 7.227 6.51 6.51 0 00-.545 2.617c0 1.968.875 3.798 2.376 5.038a6.333 6.333 0 00-.189 1.524c0 3.352 2.527 6.125 5.775 6.516l2.42 6.776a12.095 12.095 0 00-3.108 3.368l-5.73-1.273a3.068 3.068 0 00-3.732 2.99v.434c0 .306.06.597.143.877h-.143a3.285 3.285 0 00-3.281 3.281 3.285 3.285 0 003.281 3.281h.143c-.084.28-.143.571-.143.877v.434a3.068 3.068 0 003.73 2.991l5.732-1.274c2.123 3.428 5.906 5.722 10.226 5.722h.257c.608 0 1.223-.047 1.828-.14l37.506-5.77a6.162 6.162 0 005.252-6.121 6.139 6.139 0 00-3.547-5.58c2.267-2.706 3.547-6.14 3.547-9.677V39.32zM54.942 28.916c3.265 2.495 5.214 6.471 5.214 10.637v4.018c0 2.242-.559 4.437-1.612 6.396l-8.77-1.35a21.806 21.806 0 01-.555-4.835v-4.44c0-1.103.11-2.205.278-3.296.267.023.534.047.816.047 3.118 0 5.468-1.411 5.468-3.282 0-1.032-.714-1.949-1.951-2.55l.16-1.77c.342.07.67.207.952.425zM50.17 18.594h.286a2.048 2.048 0 012.036 2.231L51.5 31.748l.835.268c.958.306 1.26.71 1.26.797 0 .272-1.164 1.093-3.282 1.093-2.117 0-3.28-.821-3.28-1.093 0-.087.301-.49 1.26-.798l.834-.268-.993-10.922a2.048 2.048 0 012.038-2.231zm-3.532 9.934l.157 1.734c-1.237.601-1.951 1.518-1.951 2.55 0 1.206.983 2.213 2.511 2.782-.196 1.241-.324 2.495-.324 3.748v4.44c0 1.504.145 3.004.425 4.48l-6.448-.992a13.17 13.17 0 01-.54-3.7v-4.017c0-4.16 2-8.134 5.35-10.63.243-.181.524-.315.82-.395zm-11.82 17.789a12.72 12.72 0 01-.912-4.699v-2.3c0-4.07 1.978-7.96 5.288-10.406a2.465 2.465 0 011.453-.474c.66 0 1.269.265 1.714.71-2.58 2.827-4.08 6.539-4.08 10.406v4.018c0 1.127.135 2.243.379 3.337l-3.843-.592zm.102-32.863l.2 1.126 1.115-.249c.339-.075.65-.112.953-.112a4.38 4.38 0 014.374 4.375c0 1.15-.446 2.236-1.255 3.061l-.753.767.753.767a4.348 4.348 0 011.255 3.061c0 .033-.006.066-.006.1a4.64 4.64 0 00-.909-.1 4.66 4.66 0 00-2.752.903 15.247 15.247 0 00-4.62 5.556 72.558 72.558 0 00-1.3-3.7c1.012-5.345 4.765-8.438 4.803-8.47l-.684-.852-.684-.854c-.152.122-3.11 2.538-4.772 6.896-2.276-5.226-4.424-8.606-4.562-8.82l-1.84 1.183c.029.045 1.697 2.669 3.638 6.846-3.271-1.232-6.989-.892-7.202-.87l.218 2.176c1.645-.165 6.304-.085 8.48 2.137a69.91 69.91 0 012.19 6.164c-3.325-1.705-7.292-1.733-7.497-1.733V35c.05 0 4.92.033 7.802 2.324a14.77 14.77 0 00-.146 1.995v2.3c0 1.478.227 2.923.65 4.323l-6.22-.957a12.47 12.47 0 00-.993-.108c-2.413 0-4.375-1.978-4.375-4.407 0-.51.102-1.033.301-1.557l.32-.836-.759-.48a4.354 4.354 0 01-1.319-6.106l.682-1.023-1.096-.557a6.536 6.536 0 01-3.598-5.849 6.587 6.587 0 014.757-6.304l.68-.195.101-.698c.312-2.132 2.164-3.74 4.306-3.74.04 0 .08.009.12.014.076.011.154.021.231.027l.785.063.308-.724a4.372 4.372 0 014.025-2.661 4.359 4.359 0 014.295 3.61zM16.084 38.281h-.771a4.38 4.38 0 01-4.376-4.375c0-.51.102-1.033.301-1.555l.32-.837-.757-.479a4.353 4.353 0 01-1.32-6.106l.681-1.024-1.096-.557A6.536 6.536 0 015.47 17.5a6.587 6.587 0 014.755-6.304l.68-.195.101-.699c.313-2.132 2.165-3.74 4.307-3.74.042 0 .083.01.123.015.074.01.149.02.225.026l.788.066.31-.728a4.37 4.37 0 014.023-2.66 4.359 4.359 0 014.295 3.61l.2 1.126 1.115-.248c.34-.076.65-.113.953-.113.503 0 .98.11 1.438.27a6.548 6.548 0 00-3.842 3.015c-2.897.097-5.4 2.141-6.118 4.926-3.386 1.263-5.697 4.541-5.697 8.195a8.701 8.701 0 003.827 7.228 6.51 6.51 0 00-.546 2.616c0 1.969.875 3.799 2.377 5.04a6.323 6.323 0 00-.19 1.523c0 1.922.828 3.648 2.137 4.854-.65.188-1.274.432-1.874.722l-2.772-7.764zM6.563 52.717v-.434a.892.892 0 011.068-.856l5.205 1.157c-.127.33-.24.666-.338 1.01H7.44a.879.879 0 01-.878-.877zM3.28 56.875c0-.603.491-1.094 1.094-1.094h7.711c-.032.361-.055.724-.055 1.094 0 .37.023.733.056 1.094H4.375a1.096 1.096 0 01-1.094-1.094zm4.348 5.448c-.519.111-1.066-.309-1.066-.856v-.434c0-.483.393-.877.877-.877h5.057c.098.344.212.68.338 1.01L7.63 62.323zm59.09-5.448a3.984 3.984 0 01-3.396 3.96l-37.505 5.769c-.497.076-1 .115-1.498.115h-.258c-5.427 0-9.843-4.417-9.843-9.844s4.416-9.844 9.844-9.844h.257c.497 0 1.001.038 1.497.114l37.505 5.77a3.986 3.986 0 013.397 3.96zm0-15.257c0 3.365-1.362 6.62-3.731 9.032l-2.173-.334a15.688 15.688 0 001.529-6.745v-4.018c0-3.887-1.481-7.618-4.025-10.448a2.417 2.417 0 013.111-.19c3.311 2.443 5.289 6.333 5.289 10.404v2.3z" fill="#28285A"/><path d="M25.156 51.406H22.97v10.938h2.187V51.406zm8.75 0H31.72v10.938h2.187V51.406zm8.75 0H40.47v10.938h2.187V51.406zm8.75 2.188H49.22v6.562h2.187v-6.562zm8.75 1.094H57.97v4.374h2.187v-4.374z" fill="#28285A"/></svg>