<svg width="70" height="70" fill="none" xmlns="http://www.w3.org/2000/svg"><path d="M2.188 60.156a7.665 7.665 0 007.656 7.657h24.062a7.665 7.665 0 007.657-7.657 1.093 1.093 0 00-1.094-1.093h-1.212a7.633 7.633 0 002.306-5.47 1.093 1.093 0 00-1.094-1.093h-1.212a7.633 7.633 0 002.306-5.469 1.093 1.093 0 00-1.094-1.093h-1.212a7.633 7.633 0 002.306-5.47 1.093 1.093 0 00-1.094-1.093h-7.267a4.185 4.185 0 00.498-2.247l-.86-14.184a5.464 5.464 0 002.16-4.35V8.75h-2.188v9.844a3.28 3.28 0 11-6.562 0V8.75h-2.188v9.844a5.464 5.464 0 002.16 4.35l-.86 14.182a4.19 4.19 0 00.498 2.249h-6.88a4.166 4.166 0 00.502-2.242l-.824-16.324c1.974-1.366 3.217-3.873 3.217-6.59 0-4.222-2.944-7.656-6.563-7.656-3.618 0-6.562 3.434-6.562 7.656 0 2.717 1.243 5.224 3.217 6.59l-.823 16.31a4.19 4.19 0 00.5 2.256H3.282a1.093 1.093 0 00-1.094 1.094 7.632 7.632 0 002.306 5.468H3.28a1.093 1.093 0 00-1.094 1.094A7.633 7.633 0 004.494 52.5H3.28a1.093 1.093 0 00-1.094 1.094 7.632 7.632 0 002.306 5.468H3.28a1.093 1.093 0 00-1.094 1.094zm8.75-45.937c0-3.016 1.962-5.469 4.374-5.469 2.413 0 4.376 2.453 4.376 5.469 0 2.19-1.048 4.166-2.67 5.032a1.093 1.093 0 00-.577 1.02l.857 16.985a1.988 1.988 0 11-3.97-.014l.856-16.971a1.093 1.093 0 00-.577-1.02c-1.622-.866-2.67-2.841-2.67-5.032zm17.144 24.529a1.972 1.972 0 01-.535-1.488l.808-13.326c.776.172 1.58.172 2.355 0l.806 13.329a1.99 1.99 0 01-3.434 1.485zM4.484 41.563h34.782a5.478 5.478 0 01-5.36 4.374H9.844a5.479 5.479 0 01-5.36-4.374zm0 6.562h34.782a5.478 5.478 0 01-5.36 4.375H9.844a5.479 5.479 0 01-5.36-4.375zm0 6.563h34.782a5.478 5.478 0 01-5.36 4.374H9.844a5.479 5.479 0 01-5.36-4.374zm5.36 6.562h29.422a5.478 5.478 0 01-5.36 4.375H9.844a5.479 5.479 0 01-5.36-4.375h5.36z" fill="#28285A"/><path d="M49.219 28.438c-.119 0-.237.002-.356.005l.103-.258L54 26.172a1.093 1.093 0 000-2.031l-5.034-2.014-2.013-5.033a1.094 1.094 0 00-2.031 0l-2.014 5.033-5.033 2.014a1.093 1.093 0 000 2.03l5.033 2.014.476 1.188a18.534 18.534 0 00-8.023 5.26l1.63 1.46a16.353 16.353 0 017.207-4.683l.724 1.809a1.094 1.094 0 002.03 0l1.019-2.546a16.406 16.406 0 11-3.841 31.96l-.678 2.08c1.862.606 3.808.914 5.767.912 10.252 0 18.593-8.341 18.593-18.594 0-10.252-8.34-18.593-18.593-18.593zm-3.282 1.43l-1.171-2.93a1.095 1.095 0 00-.61-.61l-2.93-1.172 2.93-1.172a1.095 1.095 0 00.61-.609l1.172-2.93 1.171 2.93a1.097 1.097 0 00.61.61l2.93 1.171-2.93 1.172a1.095 1.095 0 00-.61.61l-1.172 2.93z" fill="#28285A"/><path d="M49.219 56.875a9.839 9.839 0 01-4.911-1.31l-1.093 1.894a12.032 12.032 0 10-1.068-20.162l1.287 1.769a9.845 9.845 0 115.785 17.809zM30.625 8.75h-2.188v8.75h2.188V8.75zm36.44 4.431l-6.044-2.014-2.015-6.044a1.094 1.094 0 00-2.075 0l-2.014 6.044-6.044 2.014a1.093 1.093 0 000 2.075l6.044 2.015 2.014 6.044a1.093 1.093 0 002.075 0l2.015-6.044 6.044-2.015a1.093 1.093 0 000-2.075zM59.81 15.37a1.093 1.093 0 00-.691.691l-1.15 3.45-1.15-3.45a1.094 1.094 0 00-.692-.692l-3.45-1.15 3.45-1.15a1.093 1.093 0 00.692-.69l1.15-3.45 1.15 3.45a1.093 1.093 0 00.691.691l3.45 1.15-3.45 1.15z" fill="#28285A"/></svg>