<svg width="70" height="70" fill="none" xmlns="http://www.w3.org/2000/svg"><path d="M5.607 7a1.4 1.4 0 100 2.8h7.263l7.372 34.825c.179.86.753 1.584 1.465 1.575h35c.74.01 1.42-.66 1.42-1.4 0-.74-.68-1.41-1.42-1.4H22.845l-1.181-5.6h37.843c.627-.007 1.22-.482 1.357-1.094l4.9-21c.182-.812-.524-1.7-1.357-1.706H16.632l-1.246-5.906A1.444 1.444 0 0014.007 7h-8.4zm11.616 9.8h12.403l1.29 7.7H18.865l-1.64-7.7zm15.225 0h14.919l-1.29 7.7H33.738l-1.29-7.7zm17.74 0h12.47l-1.794 7.7H48.898l1.29-7.7zM19.455 27.3h11.922l1.29 7.7H21.074l-1.619-7.7zm14.766 0h11.375l-1.27 7.7H35.49l-1.27-7.7zm14.219 0h11.768L58.392 35H47.148l1.29-7.7zM28.707 50.4c-3.462 0-6.3 2.837-6.3 6.3 0 3.463 2.838 6.3 6.3 6.3 3.463 0 6.3-2.837 6.3-6.3 0-3.463-2.837-6.3-6.3-6.3zm21 0c-3.462 0-6.3 2.837-6.3 6.3 0 3.463 2.838 6.3 6.3 6.3 3.463 0 6.3-2.837 6.3-6.3 0-3.463-2.837-6.3-6.3-6.3zm-21 2.8c1.95 0 3.5 1.55 3.5 3.5s-1.55 3.5-3.5 3.5-3.5-1.55-3.5-3.5 1.55-3.5 3.5-3.5zm21 0c1.95 0 3.5 1.55 3.5 3.5s-1.55 3.5-3.5 3.5-3.5-1.55-3.5-3.5 1.55-3.5 3.5-3.5z" fill="#28285A"/></svg>