<svg width="70" height="70" fill="none" xmlns="http://www.w3.org/2000/svg"><path d="M27.293 27.111a9.052 9.052 0 00.434-6.965c-1.631-4.753-6.832-7.294-11.585-5.663-4.753 1.631-7.294 6.832-5.663 11.585 1.295 3.78 4.844 6.16 8.631 6.16.98 0 1.974-.161 2.954-.497a9.076 9.076 0 005.229-4.62zm-11.34 2.436a7.128 7.128 0 01-3.633-4.109c-1.281-3.738.714-7.826 4.452-9.107a7.107 7.107 0 012.324-.392c2.975 0 5.768 1.869 6.783 4.837a7.115 7.115 0 01-.336 5.474 7.128 7.128 0 01-4.109 3.633 7.132 7.132 0 01-5.481-.336zm35.182-7.56c-4.102 1.407-6.293 5.887-4.879 9.989a7.788 7.788 0 003.983 4.508 7.863 7.863 0 003.444.805 7.9 7.9 0 002.562-.427 7.788 7.788 0 004.508-3.983 7.785 7.785 0 00.371-6.006c-1.407-4.102-5.887-6.293-9.989-4.886zm7.868 10.031a5.86 5.86 0 01-3.388 2.996 5.88 5.88 0 01-4.515-.28 5.853 5.853 0 01-2.996-3.395c-1.057-3.08.588-6.454 3.668-7.511a5.93 5.93 0 011.918-.322 5.928 5.928 0 015.6 3.99 5.926 5.926 0 01-.287 4.522zm-28.98 15.687a6.382 6.382 0 00-2.317 4.347 6.392 6.392 0 001.435 4.711 6.382 6.382 0 004.984 2.345 6.404 6.404 0 004.074-1.463 6.382 6.382 0 002.317-4.347 6.417 6.417 0 00-1.428-4.711c-2.261-2.737-6.321-3.136-9.065-.882zm8.547 5.411a4.458 4.458 0 01-1.617 3.024 4.465 4.465 0 01-3.283 1.001 4.458 4.458 0 01-3.024-1.617 4.465 4.465 0 01-1.001-3.283 4.458 4.458 0 011.617-3.024 4.451 4.451 0 012.842-1.015c1.295 0 2.583.56 3.465 1.638a4.4 4.4 0 011 3.276z" fill="#28285A"/><path d="M22.386 42.21c.182 0 .371-.028.553-.091l4.816-1.652a1.72 1.72 0 001.099-2.051l-.609-2.345a15.998 15.998 0 002.583-2.282l2.254.896a1.72 1.72 0 002.17-.84l2.233-4.578a1.713 1.713 0 00-.672-2.226l-2.093-1.232c.196-1.134.273-2.289.217-3.444l2.226-.959a1.71 1.71 0 00.938-2.128l-1.652-4.816a1.72 1.72 0 00-2.051-1.099l-2.345.609a15.998 15.998 0 00-2.282-2.583l.896-2.254a1.72 1.72 0 00-.84-2.17l-4.578-2.233a1.713 1.713 0 00-2.226.672l-1.232 2.093a15.748 15.748 0 00-3.444-.217l-.952-2.24a1.71 1.71 0 00-2.128-.938l-4.816 1.652a1.72 1.72 0 00-1.099 2.051l.609 2.345a15.998 15.998 0 00-2.583 2.282l-2.254-.896a1.72 1.72 0 00-2.17.84L.721 16.954a1.713 1.713 0 00.672 2.226l2.093 1.232a15.775 15.775 0 00-.217 3.444l-2.226.959a1.71 1.71 0 00-.938 2.128l1.652 4.816a1.72 1.72 0 002.051 1.099l2.345-.609a15.707 15.707 0 002.282 2.583l-.896 2.254a1.72 1.72 0 00.84 2.17l4.578 2.233a1.713 1.713 0 002.226-.672l1.232-2.093c1.134.196 2.296.266 3.444.217l.959 2.226a1.692 1.692 0 001.568 1.043zm-2.422-5.222c-1.141.07-2.296 0-3.423-.21a1.62 1.62 0 00-1.694.77l-1.232 2.1-4.179-2.044.896-2.261a1.621 1.621 0 00-.434-1.813 13.946 13.946 0 01-2.275-2.569 1.619 1.619 0 00-1.743-.651l-2.359.609-1.512-4.396 2.233-.966c.63-.273 1.022-.91.98-1.589-.07-1.141 0-2.296.21-3.423a1.616 1.616 0 00-.77-1.694l-2.1-1.232 2.044-4.179 2.261.896a1.621 1.621 0 001.813-.434 13.947 13.947 0 012.569-2.275c.56-.385.826-1.085.651-1.743l-.609-2.359 4.396-1.512.966 2.233c.273.63.91 1.022 1.589.973 1.148-.07 2.296 0 3.423.217a1.62 1.62 0 001.694-.77l1.232-2.1L28.77 8.61l-.896 2.261a1.621 1.621 0 00.434 1.813 13.946 13.946 0 012.275 2.569c.385.56 1.085.826 1.743.651l2.359-.609 1.512 4.396-2.233.966c-.63.273-1.022.91-.973 1.589.07 1.141 0 2.296-.217 3.423a1.616 1.616 0 00.77 1.694l2.1 1.232-2.044 4.186-2.261-.896a1.621 1.621 0 00-1.813.434 13.946 13.946 0 01-2.569 2.275 1.619 1.619 0 00-.651 1.743l.609 2.359-4.396 1.512-.966-2.233a1.628 1.628 0 00-1.484-.98c-.042-.007-.077-.007-.105-.007z" fill="#28285A"/><path d="M68.754 32.613l-1.68-.987c.147-.903.21-1.82.168-2.737l1.792-.77a1.602 1.602 0 00.875-1.988l-1.4-4.074a1.604 1.604 0 00-1.911-1.029l-1.883.49a13.35 13.35 0 00-1.82-2.058l.721-1.813a1.609 1.609 0 00-.784-2.03l-3.871-1.89a1.6 1.6 0 00-2.079.63l-.987 1.68c-.903-.147-1.82-.21-2.737-.168l-.77-1.792a1.602 1.602 0 00-1.988-.875l-4.074 1.4a1.608 1.608 0 00-1.029 1.911l.49 1.883a13.35 13.35 0 00-2.058 1.82l-1.813-.721a1.606 1.606 0 00-2.03.784l-1.89 3.871a1.6 1.6 0 00.63 2.079l1.68.987c-.147.903-.21 1.82-.168 2.737l-1.792.77a1.612 1.612 0 00-.882 1.988l1.4 4.074a1.608 1.608 0 001.911 1.029l1.883-.49a13.35 13.35 0 001.82 2.058l-.721 1.813c-.308.77.035 1.659.784 2.03l3.871 1.89a1.6 1.6 0 002.079-.63l.987-1.68c.903.147 1.82.21 2.737.168l.77 1.792a1.62 1.62 0 001.477.966c.168 0 .343-.028.511-.084l4.074-1.4a1.608 1.608 0 001.029-1.911l-.476-1.89a13.35 13.35 0 002.058-1.82l1.813.721a1.609 1.609 0 002.03-.784l1.89-3.871a1.612 1.612 0 00-.637-2.079zm-2.87 4.802l-1.785-.707a1.525 1.525 0 00-1.701.406 11.317 11.317 0 01-2.149 1.897 1.537 1.537 0 00-.616 1.638l.483 1.862-3.458 1.19-.763-1.764a1.52 1.52 0 00-1.393-.917h-.091c-.959.063-1.918 0-2.856-.175a1.531 1.531 0 00-1.596.728l-.973 1.659-3.283-1.603.707-1.785a1.525 1.525 0 00-.406-1.701 11.535 11.535 0 01-1.897-2.149 1.525 1.525 0 00-1.638-.616l-1.862.483-1.19-3.458 1.764-.763c.588-.252.959-.854.917-1.491-.063-.952 0-1.918.175-2.856a1.531 1.531 0 00-.728-1.596l-1.659-.973 1.603-3.283 1.785.707a1.513 1.513 0 001.701-.406 11.317 11.317 0 012.149-1.897c.525-.357.77-1.015.616-1.638l-.483-1.862 3.458-1.19.763 1.764c.252.588.854.952 1.491.917.959-.063 1.918 0 2.856.175a1.531 1.531 0 001.596-.728l.973-1.659 3.283 1.603-.707 1.785a1.535 1.535 0 00.413 1.708c.721.63 1.358 1.358 1.897 2.149.357.525 1.022.77 1.638.609l1.862-.483 1.19 3.458-1.764.763a1.522 1.522 0 00-.917 1.491c.063.952 0 1.918-.175 2.856-.119.63.175 1.267.728 1.596l1.659.973-1.617 3.283zm-19.67 13.258l-1.386-.245a11.333 11.333 0 00-.56-1.855l1.015-.973a1.478 1.478 0 00.119-1.995l-2.163-2.639a1.485 1.485 0 00-1.981-.273l-1.155.805a10.514 10.514 0 00-1.708-.91l.028-1.407a1.473 1.473 0 00-1.323-1.49l-3.395-.337a1.474 1.474 0 00-1.589 1.211l-.245 1.386c-.637.133-1.253.322-1.855.56l-.973-1.015a1.477 1.477 0 00-1.995-.119l-2.639 2.17a1.485 1.485 0 00-.273 1.981l.805 1.155a10.514 10.514 0 00-.91 1.708l-1.407-.028h-.028c-.749 0-1.393.574-1.463 1.323l-.336 3.395a1.47 1.47 0 001.211 1.59l1.386.244c.133.63.322 1.253.56 1.855l-1.015.973a1.477 1.477 0 00-.119 1.995l2.17 2.64a1.485 1.485 0 001.981.272l1.155-.805c.539.357 1.113.658 1.708.91l-.028 1.407a1.473 1.473 0 001.323 1.491l3.395.336a1.482 1.482 0 001.589-1.211l.245-1.386a11.333 11.333 0 001.855-.56l.973 1.015a1.477 1.477 0 001.995.12l2.639-2.17a1.485 1.485 0 00.273-1.982l-.805-1.155c.357-.539.658-1.113.91-1.708l1.407.028h.028c.749 0 1.386-.574 1.463-1.323l.336-3.395a1.497 1.497 0 00-1.218-1.589zm-1.022 4.354L43.855 55h-.028a1.41 1.41 0 00-1.316.903 9.083 9.083 0 01-1.043 1.96 1.4 1.4 0 000 1.617l.763 1.092-1.953 1.603-.924-.966a1.42 1.42 0 00-1.589-.315 9.048 9.048 0 01-2.121.644 1.415 1.415 0 00-1.148 1.141l-.231 1.316-2.513-.245.028-1.337a1.404 1.404 0 00-.903-1.344 9.083 9.083 0 01-1.96-1.043 1.4 1.4 0 00-1.617 0l-1.092.763-1.603-1.946.966-.924a1.42 1.42 0 00.315-1.589 9.048 9.048 0 01-.644-2.12 1.415 1.415 0 00-1.141-1.149l-1.316-.23.245-2.514 1.337.028a1.4 1.4 0 001.344-.903 9.083 9.083 0 011.043-1.96 1.4 1.4 0 000-1.617l-.763-1.092 1.953-1.603.924.966a1.42 1.42 0 001.589.315 9.048 9.048 0 012.121-.644 1.415 1.415 0 001.148-1.14l.231-1.317 2.513.245-.028 1.337c-.014.595.35 1.134.903 1.344a9.083 9.083 0 011.96 1.043 1.4 1.4 0 001.617 0l1.092-.763 1.603 1.953-.966.924a1.42 1.42 0 00-.315 1.59c.301.678.518 1.392.644 2.12.098.581.56 1.043 1.141 1.148l1.316.231-.245 2.506z" fill="#28285A"/></svg>